<?xml version="1.0" encoding="UTF-8"?>
<svg version="1.1" xmlns="http://www.w3.org/2000/svg" width="469" height="84">
<path d="M0 0 C5.402508 0.43989887 9.9004038 1.91578183 14.875 4 C15.55046875 4.27328125 16.2259375 4.5465625 16.921875 4.828125 C21.84470663 6.84470663 21.84470663 6.84470663 23 8 C23.33572966 11.94971069 23.32496141 15.91285358 23.375 19.875 C23.43107422 21.54755859 23.43107422 21.54755859 23.48828125 23.25390625 C23.49988281 24.32253906 23.51148438 25.39117187 23.5234375 26.4921875 C23.5531665 27.96727783 23.5531665 27.96727783 23.58349609 29.47216797 C23 32 23 32 20.66455078 33.75756836 C17.63919342 35.16823756 14.61162295 36.47702051 11.5 37.6875 C10.3965625 38.12449219 9.293125 38.56148437 8.15625 39.01171875 C4.4324017 40.17772571 1.7205641 40.67654916 -1.95703125 39.23046875 C-2.56933594 38.88628906 -3.18164062 38.54210938 -3.8125 38.1875 C-6.64039799 36.6714026 -9.41938401 35.40507963 -12.4375 34.3125 C-16 33 -16 33 -17 32 C-17.33572966 28.05028931 -17.32496141 24.08714642 -17.375 20.125 C-17.41238281 19.00996094 -17.44976562 17.89492188 -17.48828125 16.74609375 C-17.49988281 15.67746094 -17.51148438 14.60882813 -17.5234375 13.5078125 C-17.5531665 12.03272217 -17.5531665 12.03272217 -17.58349609 10.52783203 C-17 8 -17 8 -14.64599609 6.2265625 C-11.88329588 4.94590132 -9.13014454 3.86359015 -6.25 2.875 C-2.85369499 1.89797747 -2.85369499 1.89797747 0 0 Z M-0.75 9.5 C-1.1625 9.995 -1.575 10.49 -2 11 C0.76250036 12.38125018 2.94731099 12.19079306 6 12 C6.66 11.34 7.32 10.68 8 10 C4.72572061 7.81714707 2.50678016 6.70847414 -0.75 9.5 Z M-10 16 C-10 19.96 -10 23.92 -10 28 C-6.7 28.99 -3.4 29.98 0 31 C0.28328595 27.29210162 0.43715494 23.69942365 0 20 C-3.17809119 16.91271142 -5.54927953 16.89014409 -10 16 Z M7 19 C5.71387324 20.05978933 5.71387324 20.05978933 5.90234375 22.50390625 C5.91394531 23.51324219 5.92554687 24.52257812 5.9375 25.5625 C5.94652344 26.57441406 5.95554687 27.58632813 5.96484375 28.62890625 C5.97644531 29.41136719 5.98804687 30.19382812 6 31 C10.95 29.515 10.95 29.515 16 28 C16 24.04 16 20.08 16 16 C12.68102863 16 9.98026556 17.64533384 7 19 Z " fill="#5EC8A2" transform="translate(33,22)"/>
<path d="M0 0 C2.64 0 5.28 0 8 0 C9.572056 4.92787863 11.13848399 9.85749697 12.69970703 14.78881836 C13.23168829 16.46639318 13.76520836 18.14348082 14.30029297 19.82006836 C15.06882638 22.22904275 15.83182176 24.63971082 16.59375 27.05078125 C16.83436157 27.80087967 17.07497314 28.55097809 17.32287598 29.32380676 C18.26652983 32.32537082 19 34.8333449 19 38 C16.69 38 14.38 38 12 38 C11.34 35.03 10.68 32.06 10 29 C6.04 29 2.08 29 -2 29 C-2.66 31.97 -3.32 34.94 -4 38 C-6.31 38 -8.62 38 -11 38 C-8.9333785 29.30532192 -6.47989291 20.77793973 -3.8125 12.25 C-3.44447266 11.0640625 -3.07644531 9.878125 -2.69726562 8.65625 C-1.80110321 5.76990871 -0.90197633 2.88452863 0 0 Z M3 11 C2.49487756 12.60256108 1.99608373 14.20711792 1.5 15.8125 C1.2215625 16.70582031 0.943125 17.59914063 0.65625 18.51953125 C-0.12788351 21.05573395 -0.12788351 21.05573395 0 24 C2.64 24 5.28 24 8 24 C7.68991116 22.39536551 7.37683713 20.79130769 7.0625 19.1875 C6.88847656 18.29417969 6.71445313 17.40085937 6.53515625 16.48046875 C6.02258847 13.88602829 6.02258847 13.88602829 5 11 C4.34 11 3.68 11 3 11 Z " fill="#5FC6A1" transform="translate(93,21)"/>
<path d="M0 0 C2.31 0 4.62 0 7 0 C9.62118066 6.73533153 11.86483307 13.57532083 14.0715332 20.45654297 C14.69320624 22.39277235 15.32009273 24.32726481 15.94726562 26.26171875 C16.33978516 27.48246094 16.73230469 28.70320313 17.13671875 29.9609375 C17.49467529 31.07259277 17.85263184 32.18424805 18.22143555 33.32958984 C19 36 19 36 19 38 C16.69 38 14.38 38 12 38 C11.34 35.03 10.68 32.06 10 29 C6.04 29.33 2.08 29.66 -2 30 C-2.99 32.64 -3.98 35.28 -5 38 C-6.98 38 -8.96 38 -11 38 C-9.60737678 29.52305544 -7.05942254 21.52054464 -4.375 13.375 C-3.9500028 12.07178341 -3.52552006 10.76839893 -3.1015625 9.46484375 C-2.07273507 6.30821415 -1.0387784 3.15336602 0 0 Z M3 10 C1.68 14.62 0.36 19.24 -1 24 C1.97 24 4.94 24 8 24 C7.55037804 22.03964825 7.09001752 20.08175691 6.625 18.125 C6.24214844 16.48917969 6.24214844 16.48917969 5.8515625 14.8203125 C5.21093785 11.89591545 5.21093785 11.89591545 3 10 Z " fill="#5FC6A1" transform="translate(416,21)"/>
<path d="M0 0 C3.20008327 2.46863567 4.88973538 3.79420614 6.1875 7.6875 C6.1875 9.9975 6.1875 12.3075 6.1875 14.6875 C-0.4125 15.0175 -7.0125 15.3475 -13.8125 15.6875 C-12.8225 17.3375 -11.8325 18.9875 -10.8125 20.6875 C-7.21330577 21.58342083 -7.21330577 21.58342083 -3.8125 21.6875 C-3.44125 21.0275 -3.07 20.3675 -2.6875 19.6875 C-0.8125 17.6875 -0.8125 17.6875 2.375 17.4375 C3.303125 17.52 4.23125 17.6025 5.1875 17.6875 C4.70798204 22.00316167 3.48514982 23.8894941 0.1875 26.6875 C-3.52998473 28.54624236 -7.75535813 28.12375181 -11.8125 27.6875 C-15.97935498 25.79347501 -17.43523112 24.35400835 -19.6875 20.375 C-21.38035134 14.82620951 -21.51198098 10.75754642 -19.1875 5.4375 C-15.21019276 -1.73834104 -7.27666251 -3.39577584 0 0 Z M-13.8125 7.6875 C-13.8125 8.3475 -13.8125 9.0075 -13.8125 9.6875 C-9.1925 9.6875 -4.5725 9.6875 0.1875 9.6875 C-1.46106825 5.56346527 -1.46106825 5.56346527 -4.8125 3.6875 C-9.48840167 3.6875 -10.50899386 4.56752198 -13.8125 7.6875 Z " fill="#5FC6A1" transform="translate(200.8125,32.3125)"/>
<path d="M0 0 C3.23230176 2.93162252 4.379212 5.29458802 5.6875 9.4375 C5.6875 11.0875 5.6875 12.7375 5.6875 14.4375 C-1.2425 14.4375 -8.1725 14.4375 -15.3125 14.4375 C-14.3225 16.4175 -13.3325 18.3975 -12.3125 20.4375 C-8.91280189 21.7684316 -8.91280189 21.7684316 -5.3125 21.4375 C-3.9381709 20.14646357 -2.60353643 18.8118291 -1.3125 17.4375 C1.9375 17.1875 1.9375 17.1875 4.6875 17.4375 C2.76267084 24.10037016 2.76267084 24.10037016 -0.3125 26.4375 C-5.25992814 28.08664271 -10.25048475 28.2623061 -15.125 26.3125 C-18.7200779 23.23100466 -20.98932624 20.63116429 -21.69921875 15.8125 C-21.87920463 11.24458261 -21.6295991 8.12048268 -19.6875 3.9375 C-14.00762869 -2.0413119 -7.39275052 -3.48714647 0 0 Z M-15.3125 8.4375 C-15.3125 8.7675 -15.3125 9.0975 -15.3125 9.4375 C-10.6925 9.4375 -6.0725 9.4375 -1.3125 9.4375 C-1.8864739 5.23569816 -1.8864739 5.23569816 -5.3125 3.4375 C-10.3310155 2.51303662 -12.1563274 4.74026924 -15.3125 8.4375 Z " fill="#5FC6A1" transform="translate(363.3125,32.5625)"/>
<path d="M0 0 C2.125 1.6875 2.125 1.6875 4.125 4.6875 C4.125 5.6775 4.125 6.6675 4.125 7.6875 C1.3125 7.875 1.3125 7.875 -1.875 7.6875 C-2.89519573 6.7081121 -3.89649805 5.70854551 -4.875 4.6875 C-7.50070704 4.43680087 -7.50070704 4.43680087 -9.875 4.6875 C-9.875 6.0075 -9.875 7.3275 -9.875 8.6875 C-9.12734375 8.85765625 -8.3796875 9.0278125 -7.609375 9.203125 C-6.62453125 9.44546875 -5.6396875 9.6878125 -4.625 9.9375 C-3.16320312 10.28554688 -3.16320312 10.28554688 -1.671875 10.640625 C1.48996745 11.82410793 3.01753478 13.07286441 5.125 15.6875 C5.78854848 19.58584732 5.46447149 21.16073389 3.3125 24.5 C0.20312992 27.60937008 -2.45325014 27.87641974 -6.6875 28 C-11.49720557 27.9367144 -14.32590165 27.14559583 -17.875 23.6875 C-18.75 20.4375 -18.75 20.4375 -18.875 17.6875 C-16.0625 17.4375 -16.0625 17.4375 -12.875 17.6875 C-12.400625 18.3475 -11.92625 19.0075 -11.4375 19.6875 C-10.6640625 20.6775 -10.6640625 20.6775 -9.875 21.6875 C-6.24936186 22.02130814 -6.24936186 22.02130814 -2.875 21.6875 C-2.545 20.3675 -2.215 19.0475 -1.875 17.6875 C-2.7 17.419375 -3.525 17.15125 -4.375 16.875 C-6.96571301 15.99600808 -9.55075191 15.112914 -12.125 14.1875 C-12.79015625 13.9503125 -13.4553125 13.713125 -14.140625 13.46875 C-15.875 12.6875 -15.875 12.6875 -17.875 10.6875 C-18.3173824 6.70605844 -18.53805693 4.55633322 -16.0625 1.3125 C-11.24581561 -2.2656084 -5.32530958 -2.43111959 0 0 Z " fill="#5FC6A1" transform="translate(135.875,32.3125)"/>
<path d="M0 0 C2.5625 1.875 2.5625 1.875 3.4375 5.0625 C3.47875 5.990625 3.52 6.91875 3.5625 7.875 C0.75 8.0625 0.75 8.0625 -2.4375 7.875 C-3.45769573 6.8956121 -4.45899805 5.89604551 -5.4375 4.875 C-8.06320704 4.62430087 -8.06320704 4.62430087 -10.4375 4.875 C-10.4375 6.195 -10.4375 7.515 -10.4375 8.875 C-9.60605469 9.05675781 -8.77460938 9.23851562 -7.91796875 9.42578125 C-6.83128906 9.67714844 -5.74460938 9.92851563 -4.625 10.1875 C-3.00658203 10.55294922 -3.00658203 10.55294922 -1.35546875 10.92578125 C1.54987 11.87089145 2.83696847 12.39307109 4.5625 14.875 C5.33919903 21.86529126 5.33919903 21.86529126 2.6875 25.3125 C-1.79337775 28.60726305 -6.01883584 28.35362018 -11.4375 27.875 C-15.16240926 26.28993223 -17.368364 24.35986063 -19.4375 20.875 C-19.4375 19.885 -19.4375 18.895 -19.4375 17.875 C-16.6875 17.625 -16.6875 17.625 -13.4375 17.875 C-12.10416667 19.20833333 -10.77083333 20.54166667 -9.4375 21.875 C-6.269668 22.20948259 -6.269668 22.20948259 -3.4375 21.875 C-3.1075 20.555 -2.7775 19.235 -2.4375 17.875 C-6.37381869 16.22428571 -10.35891501 14.95693676 -14.44921875 13.75390625 C-16.4375 12.875 -16.4375 12.875 -18.4375 9.875 C-18.11175569 3.79443958 -18.11175569 3.79443958 -16.0625 1 C-11.19260201 -2.37146784 -5.32645402 -1.74320313 0 0 Z " fill="#5FC6A1" transform="translate(168.4375,32.125)"/>
<path d="M0 0 C7.92 0 15.84 0 24 0 C24 1.65 24 3.3 24 5 C21.03 5 18.06 5 15 5 C15 14.57 15 24.14 15 34 C17.97 34 20.94 34 24 34 C24 35.32 24 36.64 24 38 C16.08 38 8.16 38 0 38 C0 36.68 0 35.36 0 34 C2.97 34 5.94 34 9 34 C9 24.43 9 14.86 9 5 C6.03 5 3.06 5 0 5 C0 3.35 0 1.7 0 0 Z " fill="#5FC7A1" transform="translate(440,21)"/>
<path d="M0 0 C2.31 0 4.62 0 7 0 C8.1734316 2.60130627 9.33892508 5.20568508 10.5 7.8125 C10.83386719 8.55048828 11.16773438 9.28847656 11.51171875 10.04882812 C11.82753906 10.76103516 12.14335937 11.47324219 12.46875 12.20703125 C12.76201172 12.8616333 13.05527344 13.51623535 13.35742188 14.19067383 C14 16 14 16 14 19 C14.66 19 15.32 19 16 19 C16.10183594 18.32582031 16.20367187 17.65164062 16.30859375 16.95703125 C17.15401138 13.34131857 18.5623005 10.0672998 20.0625 6.6875 C20.34416016 6.04232422 20.62582031 5.39714844 20.91601562 4.73242188 C21.6062743 3.15301642 22.30253198 1.57623507 23 0 C25.31 0 27.62 0 30 0 C28.00667932 6.39296661 25.58525386 12.47046394 22.8125 18.5625 C22.26045898 19.78936523 22.26045898 19.78936523 21.69726562 21.04101562 C20.80204987 23.02909218 19.9015835 25.01480308 19 27 C16.36 27 13.72 27 11 27 C9.1607188 22.87762652 7.32958658 18.75168422 5.5 14.625 C4.97535156 13.449375 4.45070313 12.27375 3.91015625 11.0625 C3.41386719 9.94101562 2.91757812 8.81953125 2.40625 7.6640625 C1.94541016 6.62717285 1.48457031 5.5902832 1.00976562 4.52197266 C0 2 0 2 0 0 Z " fill="#5FC6A1" transform="translate(308,32)"/>
<path d="M0 0 C1.65 0 3.3 0 5 0 C5 2.31 5 4.62 5 7 C8.3 7 11.6 7 15 7 C15 8.65 15 10.3 15 12 C11.7 12 8.4 12 5 12 C5.33 17.28 5.66 22.56 6 28 C8.97 28.33 11.94 28.66 15 29 C15 30.65 15 32.3 15 34 C12.89646505 34.0810206 10.79204048 34.13919907 8.6875 34.1875 C7.51574219 34.22230469 6.34398437 34.25710937 5.13671875 34.29296875 C2 34 2 34 0.32226562 32.75976562 C-1.35438044 30.52836518 -1.34871025 29.31927593 -1.29296875 26.55078125 C-1.28330078 25.70322266 -1.27363281 24.85566406 -1.26367188 23.98242188 C-1.23853516 23.10134766 -1.21339844 22.22027344 -1.1875 21.3125 C-1.17396484 20.41982422 -1.16042969 19.52714844 -1.14648438 18.60742188 C-1.11114079 16.40433834 -1.06180493 14.20247418 -1 12 C-3.31 12 -5.62 12 -8 12 C-8 10.35 -8 8.7 -8 7 C-6.02 6.67 -4.04 6.34 -2 6 C-1.34 4.02 -0.68 2.04 0 0 Z " fill="#60C6A1" transform="translate(254,25)"/>
<path d="M0 0 C1.22589844 0.01353516 1.22589844 0.01353516 2.4765625 0.02734375 C3.41628906 0.04474609 3.41628906 0.04474609 4.375 0.0625 C4.375 2.0425 4.375 4.0225 4.375 6.0625 C3.74851563 6.09988281 3.12203125 6.13726562 2.4765625 6.17578125 C1.25066406 6.27439453 1.25066406 6.27439453 0 6.375 C-0.81210938 6.43300781 -1.62421875 6.49101563 -2.4609375 6.55078125 C-5.00421338 6.89240528 -5.00421338 6.89240528 -6.625 10.0625 C-6.91952584 12.44927076 -7.1178217 14.84876094 -7.25 17.25 C-7.32476562 18.52230469 -7.39953125 19.79460938 -7.4765625 21.10546875 C-7.52554688 22.08128906 -7.57453125 23.05710937 -7.625 24.0625 C-4.985 24.0625 -2.345 24.0625 0.375 24.0625 C0.375 25.3825 0.375 26.7025 0.375 28.0625 C-6.555 28.0625 -13.485 28.0625 -20.625 28.0625 C-20.625 26.7425 -20.625 25.4225 -20.625 24.0625 C-18.315 24.0625 -16.005 24.0625 -13.625 24.0625 C-13.625 18.1225 -13.625 12.1825 -13.625 6.0625 C-15.935 6.0625 -18.245 6.0625 -20.625 6.0625 C-20.625 4.4125 -20.625 2.7625 -20.625 1.0625 C-15.95833333 1.0625 -11.29166667 1.0625 -6.625 1.0625 C-4.21954362 -0.14022819 -2.67503047 -0.03821472 0 0 Z " fill="#5FC6A1" transform="translate(234.625,30.9375)"/>
<path d="M0 0 C1.95766281 -0.08082094 3.91626728 -0.13910778 5.875 -0.1875 C7.51082031 -0.23970703 7.51082031 -0.23970703 9.1796875 -0.29296875 C10.11039062 -0.19628906 11.04109375 -0.09960938 12 0 C14.13604308 3.20406462 14.24208908 3.99600747 14.1953125 7.66796875 C14.18564453 9.00698242 14.18564453 9.00698242 14.17578125 10.37304688 C14.15902344 11.30181641 14.14226562 12.23058594 14.125 13.1875 C14.11597656 14.12787109 14.10695313 15.06824219 14.09765625 16.03710938 C14.07409056 18.35832968 14.04119116 20.67903644 14 23 C16.64 23 19.28 23 22 23 C22 24.32 22 25.64 22 27 C14.41 27 6.82 27 -1 27 C-1 25.68 -1 24.36 -1 23 C1.97 23 4.94 23 8 23 C8 17.06 8 11.12 8 5 C5.36 5 2.72 5 0 5 C0 3.35 0 1.7 0 0 Z " fill="#60C6A1" transform="translate(280,32)"/>
<path d="M0 0 C1.99954746 -0.04254356 4.00041636 -0.04080783 6 0 C8.04128347 2.04128347 7.32103654 5.96352323 7.375 8.75 C7.41238281 9.46671875 7.44976562 10.1834375 7.48828125 10.921875 C7.55651015 15.04593322 7.2133636 16.74396367 4.5390625 19.953125 C3.70117188 20.62859375 2.86328125 21.3040625 2 22 C1.67 22.33 1.34 22.66 1 23 C-1.86267567 23.07325168 -4.700719 23.09238205 -7.5625 23.0625 C-8.36880859 23.05798828 -9.17511719 23.05347656 -10.00585938 23.04882812 C-12.00393756 23.03700518 -14.00197783 23.01906914 -16 23 C-16 20.69 -16 18.38 -16 16 C-15.00097656 15.93941406 -14.00195312 15.87882812 -12.97265625 15.81640625 C-11.03712891 15.69072266 -11.03712891 15.69072266 -9.0625 15.5625 C-7.77472656 15.48128906 -6.48695312 15.40007812 -5.16015625 15.31640625 C-2.13976043 15.35080812 -2.13976043 15.35080812 -1 14 C-0.76472227 11.65012738 -0.58613583 9.29443961 -0.4375 6.9375 C-0.35371094 5.64714844 -0.26992188 4.35679688 -0.18359375 3.02734375 C-0.12300781 2.02832031 -0.06242187 1.02929688 0 0 Z " fill="#5DC8A3" transform="translate(62,52)"/>
<path d="M0 0 C2.73083902 -0.13548815 5.45491807 -0.23429855 8.1875 -0.3125 C8.95642578 -0.35439453 9.72535156 -0.39628906 10.51757812 -0.43945312 C14.90714937 -0.53364993 16.46286038 -0.44164813 19.98828125 2.45703125 C20.98408203 3.71580078 20.98408203 3.71580078 22 5 C22.33 5.33 22.66 5.66 23 6 C23.09981214 8.6773138 23.13879875 11.32304175 23.125 14 C23.13080078 15.12535156 23.13080078 15.12535156 23.13671875 16.2734375 C23.12661053 21.87338947 23.12661053 21.87338947 22 23 C20.00041636 23.04080783 17.99954746 23.04254356 16 23 C15.93941406 22.00097656 15.87882812 21.00195312 15.81640625 19.97265625 C15.69072266 18.03712891 15.69072266 18.03712891 15.5625 16.0625 C15.48128906 14.77472656 15.40007813 13.48695312 15.31640625 12.16015625 C15.35080812 9.13976043 15.35080812 9.13976043 14 8 C11.65012738 7.76472227 9.29443961 7.58613583 6.9375 7.4375 C5.00197266 7.31181641 5.00197266 7.31181641 3.02734375 7.18359375 C1.52880859 7.09271484 1.52880859 7.09271484 0 7 C0 4.69 0 2.38 0 0 Z " fill="#5DC8A3" transform="translate(46,9)"/>
<path d="M0 0 C2.5 0.125 2.5 0.125 3.5 1.125 C3.73527773 3.47487262 3.91386417 5.83056039 4.0625 8.1875 C4.14628906 9.47785156 4.23007813 10.76820312 4.31640625 12.09765625 C4.37699219 13.09667969 4.43757812 14.09570312 4.5 15.125 C5.49902344 15.18558594 6.49804688 15.24617188 7.52734375 15.30859375 C8.81769531 15.39238281 10.10804687 15.47617188 11.4375 15.5625 C13.36916016 15.68431641 13.36916016 15.68431641 15.33984375 15.80859375 C18.5 16.125 18.5 16.125 19.5 17.125 C19.625 19.625 19.625 19.625 19.5 22.125 C17.45871653 24.16628347 13.53647677 23.44603654 10.75 23.5 C10.03328125 23.53738281 9.3165625 23.57476562 8.578125 23.61328125 C4.45406678 23.68151015 2.75603633 23.3383636 -0.453125 20.6640625 C-1.12859375 19.82617188 -1.8040625 18.98828125 -2.5 18.125 C-2.83 17.795 -3.16 17.465 -3.5 17.125 C-3.59981214 14.4476862 -3.63879875 11.80195825 -3.625 9.125 C-3.62886719 8.37476563 -3.63273438 7.62453125 -3.63671875 6.8515625 C-3.62467845 0.18123392 -3.62467845 0.18123392 0 0 Z " fill="#5EC7A2" transform="translate(6.5,51.875)"/>
<path d="M0 0 C1.12535156 0.00580078 1.12535156 0.00580078 2.2734375 0.01171875 C3.02367187 0.00785156 3.77390625 0.00398437 4.546875 0 C10.14682697 0.01010822 10.14682697 0.01010822 11.2734375 1.13671875 C11.3984375 3.63671875 11.3984375 3.63671875 11.2734375 6.13671875 C9.33252924 8.07762701 5.80049848 7.5359131 3.2109375 7.69921875 C1.92058594 7.78300781 0.63023438 7.86679687 -0.69921875 7.953125 C-1.69824219 8.01371094 -2.69726562 8.07429688 -3.7265625 8.13671875 C-3.78714844 9.13574219 -3.84773437 10.13476562 -3.91015625 11.1640625 C-3.99394531 12.45441406 -4.07773438 13.74476562 -4.1640625 15.07421875 C-4.24527344 16.36199219 -4.32648437 17.64976563 -4.41015625 18.9765625 C-4.7265625 22.13671875 -4.7265625 22.13671875 -5.7265625 23.13671875 C-8.2265625 23.26171875 -8.2265625 23.26171875 -10.7265625 23.13671875 C-12.76784597 21.09543528 -12.04759904 17.17319552 -12.1015625 14.38671875 C-12.13894531 13.67 -12.17632812 12.95328125 -12.21484375 12.21484375 C-12.28307265 8.09078553 -11.9399261 6.39275508 -9.265625 3.18359375 C-8.42773438 2.508125 -7.58984375 1.83265625 -6.7265625 1.13671875 C-4.90540247 -0.68444128 -2.41984486 0.00436795 0 0 Z " fill="#5FC7A2" transform="translate(14.7265625,8.86328125)"/>
<path d="M0 0 C3.0625 0.1875 3.0625 0.1875 5.0625 2.1875 C4.50694444 6.74305556 4.50694444 6.74305556 3.0625 8.1875 C0.625 8.375 0.625 8.375 -1.9375 8.1875 C-3.9375 6.1875 -3.9375 6.1875 -4.125 3.625 C-3.8509967 0.06295712 -3.62735131 0.23153306 0 0 Z " fill="#5FC6A2" transform="translate(289.9375,19.8125)"/>
</svg>
