<?xml version="1.0" encoding="UTF-8"?>
<svg version="1.1" xmlns="http://www.w3.org/2000/svg" width="192" height="192">
<path d="M0 0 C2.38988579 1.03037658 4.77041509 2.08060788 7.15124512 3.13171387 C8.76240045 3.82244075 10.37437642 4.51125673 11.98718262 5.19812012 C31.64706043 13.62752918 31.64706043 13.62752918 34.90124512 16.88171387 C35.17539978 19.44906616 35.17539978 19.44906616 35.2076416 22.73669434 C35.223629 23.96491913 35.23961639 25.19314392 35.25608826 26.45858765 C35.26246483 27.80535468 35.26785761 29.15212669 35.27233887 30.49890137 C35.28130325 31.87651673 35.29042505 33.25413107 35.29969788 34.63174438 C35.31620033 37.52189501 35.32389011 40.41192964 35.32678223 43.30212402 C35.33216477 47.00369085 35.3698315 50.70416563 35.41552639 54.40542412 C35.44528846 57.25192226 35.45250558 60.0981573 35.45350838 62.94479752 C35.45771322 64.30917483 35.47015847 65.67355274 35.49102592 67.03777695 C35.51791138 68.94764619 35.51001367 70.85790901 35.50061035 72.76794434 C35.505681 73.85445282 35.51075165 74.9409613 35.51597595 76.06039429 C34.90124512 78.88171387 34.90124512 78.88171387 32.62103271 81.14463806 C30.34646016 82.59736362 28.27843354 83.78382778 25.78527832 84.78869629 C25.01130203 85.1054985 24.23732574 85.42230072 23.43989563 85.748703 C22.61889877 86.07490128 21.79790192 86.40109955 20.95202637 86.73718262 C20.0981987 87.08428787 19.24437103 87.43139313 18.3646698 87.78901672 C15.65082597 88.89034853 12.93248533 89.98003286 10.21374512 91.06921387 C7.48541343 92.17173748 4.75802614 93.27657373 2.03068542 94.38154602 C0.33651537 95.06688315 -1.3584398 95.75028326 -3.054245 96.43156433 C-3.8187648 96.73891006 -4.58328461 97.0462558 -5.37097168 97.36291504 C-6.04428024 97.63286789 -6.71758881 97.90282074 -7.41130066 98.18095398 C-8.66138639 98.70008506 -9.88806535 99.2763691 -11.09875488 99.88171387 C-22.270124 101.68936257 -31.41591117 97.01693723 -41.34875488 92.63171387 C-42.95991022 91.94098698 -44.57188619 91.25217101 -46.18469238 90.56530762 C-65.84457019 82.13589856 -65.84457019 82.13589856 -69.09875488 78.88171387 C-69.35272217 76.30763245 -69.35272217 76.30763245 -69.35754395 73.01086426 C-69.36384827 71.77941177 -69.37015259 70.54795929 -69.37664795 69.27919006 C-69.37306787 67.92924863 -69.36896583 66.5793085 -69.36437988 65.22937012 C-69.36572677 63.84935945 -69.3676675 62.46934925 -69.37017822 61.08934021 C-69.37312939 58.19497161 -69.36883286 55.30072635 -69.35949707 52.40637207 C-69.34811308 48.69610534 -69.35465518 44.98612828 -69.366642 41.27587223 C-69.37386998 38.42514363 -69.37156819 35.57448365 -69.36638641 32.72375298 C-69.36505196 31.35580855 -69.36669052 29.98785789 -69.37134552 28.61992073 C-69.37642466 26.7072677 -69.36731052 24.79459285 -69.35754395 22.88195801 C-69.35595276 21.79322891 -69.35436157 20.70449982 -69.35272217 19.58277893 C-69.09875488 16.88171387 -69.09875488 16.88171387 -67.09875488 13.88171387 C-64.42749174 12.61171735 -61.80503706 11.48574842 -59.05578613 10.41296387 C-58.25396408 10.09138306 -57.45214203 9.76980225 -56.62602234 9.43847656 C-54.05787715 8.41066349 -51.48479488 7.3959334 -48.91125488 6.38171387 C-46.35680792 5.36456506 -43.803413 4.34480683 -41.25004578 3.32495117 C-39.66150354 2.69162474 -38.07212032 2.06040221 -36.48176575 1.43164062 C-35.38109016 0.99603821 -35.38109016 0.99603821 -34.25817871 0.55163574 C-33.55466278 0.27358093 -32.85114685 -0.00447388 -32.12631226 -0.29095459 C-30.18967211 -1.08118795 -28.29050914 -1.9317162 -26.38562012 -2.79504395 C-17.02445569 -6.56370704 -8.83879826 -3.70375845 0 0 Z M-22.01281738 15.41296387 C-22.77336426 15.72878418 -23.53391113 16.04460449 -24.31750488 16.36999512 C-25.11156738 16.7038623 -25.90562988 17.03772949 -26.72375488 17.38171387 C-27.52555176 17.71558105 -28.32734863 18.04944824 -29.15344238 18.39343262 C-31.1365255 19.21971725 -33.11781185 20.05031165 -35.09875488 20.88171387 C-30.26932716 26.04716395 -22.52179489 28.7616072 -15.53625488 29.00671387 C-10.26616482 27.28195712 -5.05132402 25.38924493 -0.09875488 22.88171387 C0.23124512 22.22171387 0.56124512 21.56171387 0.90124512 20.88171387 C-1.88869879 19.71077381 -4.68054085 18.5448046 -7.47375488 17.38171387 C-8.26781738 17.04784668 -9.06187988 16.71397949 -9.88000488 16.36999512 C-11.0208252 15.89626465 -11.0208252 15.89626465 -12.18469238 15.41296387 C-12.88642578 15.11970215 -13.58815918 14.82644043 -14.31115723 14.52429199 C-17.38493371 13.41937807 -19.10000123 14.19566756 -22.01281738 15.41296387 Z M-52.09875488 34.88171387 C-52.09875488 45.77171387 -52.09875488 56.66171387 -52.09875488 67.88171387 C-47.82937988 69.69671387 -43.56000488 71.51171387 -39.16125488 73.38171387 C-37.81297607 73.95599121 -36.46469727 74.53026855 -35.07556152 75.12194824 C-34.02231689 75.5686084 -32.96907227 76.01526855 -31.88391113 76.47546387 C-30.79989014 76.93630371 -29.71586914 77.39714355 -28.59899902 77.87194824 C-26.39362417 78.94412712 -26.39362417 78.94412712 -25.09875488 78.88171387 C-25.09875488 67.99171387 -25.09875488 57.10171387 -25.09875488 45.88171387 C-31.08195906 43.22251201 -37.0477979 40.61826233 -43.09875488 38.13171387 C-43.86059082 37.81589355 -44.62242676 37.50007324 -45.40734863 37.17468262 C-48.6537486 35.58667239 -48.6537486 35.58667239 -52.09875488 34.88171387 Z M4.40124512 39.81921387 C3.22175293 40.28778809 2.04226074 40.7563623 0.82702637 41.23913574 C-0.8532666 41.91105957 -0.8532666 41.91105957 -2.56750488 42.59655762 C-3.6032666 43.01026611 -4.63902832 43.42397461 -5.70617676 43.85021973 C-8.00814288 44.66797165 -8.00814288 44.66797165 -9.09875488 45.88171387 C-9.18719281 48.33001813 -9.2140424 50.74991986 -9.19641113 53.19812012 C-9.19499619 53.92917465 -9.19358124 54.66022919 -9.19212341 55.41343689 C-9.18650896 57.75707019 -9.1739541 60.10060926 -9.16125488 62.44421387 C-9.15624174 64.02949895 -9.15167851 65.61478552 -9.14758301 67.20007324 C-9.13653485 71.09398997 -9.1192606 74.98783592 -9.09875488 78.88171387 C-4.97319707 77.23727632 -0.84840428 75.59092847 3.27624512 73.94421387 C5.03968262 73.24135254 5.03968262 73.24135254 6.83874512 72.52429199 C7.96022949 72.07634277 9.08171387 71.62839355 10.23718262 71.16687012 C11.27407227 70.75316162 12.31096191 70.33945313 13.37927246 69.91320801 C15.84000325 68.94372349 15.84000325 68.94372349 17.90124512 67.88171387 C17.90124512 56.99171387 17.90124512 46.10171387 17.90124512 34.88171387 C13.65839735 34.88171387 8.29816078 38.25831814 4.40124512 39.81921387 Z " fill="#5DC5A0" transform="translate(113.0987548828125,48.1182861328125)"/>
<path d="M0 0 C2.68554688 1.48510742 2.68554688 1.48510742 5 4 C5.48329365 7.08176413 5.65597811 9.59963695 5.59375 12.67578125 C5.59379028 13.5191655 5.59383057 14.36254974 5.59387207 15.23149109 C5.58851682 17.01434788 5.5709336 18.79720407 5.54199219 20.57983398 C5.5003012 23.29289926 5.50091149 26.00346664 5.5078125 28.71679688 C5.49731318 30.45314208 5.48437109 32.18947457 5.46875 33.92578125 C5.46854858 34.73018143 5.46834717 35.5345816 5.46813965 36.36335754 C5.35929467 41.61254444 4.35690841 45.29987704 2 50 C1.34 50 0.68 50 0 50 C-0.185625 50.928125 -0.185625 50.928125 -0.375 51.875 C-1 54 -1 54 -3 56 C-3.99 56 -4.98 56 -6 56 C-6 56.66 -6 57.32 -6 58 C-11.53597292 60.77605102 -15.92096256 61.46720927 -22.07421875 61.46875 C-22.92047318 61.47636353 -23.7667276 61.48397705 -24.6386261 61.49182129 C-26.41603661 61.50256892 -28.19351001 61.50549725 -29.97094727 61.50097656 C-32.69067506 61.49999886 -35.40762803 61.54178863 -38.12695312 61.5859375 C-39.85936914 61.59114124 -41.59179492 61.59383275 -43.32421875 61.59375 C-44.13469162 61.61014526 -44.94516449 61.62654053 -45.78019714 61.64343262 C-49.70879562 61.59519853 -51.57678164 61.39075173 -54.51098633 58.68164062 C-56.47642586 55.14198038 -56.57063592 52.99445146 -56 49 C-54.24080657 46.00285564 -53.19098733 44.3338553 -49.78955078 43.38037109 C-46.52524905 42.93526501 -43.34933211 42.83682367 -40.0546875 42.7890625 C-38.71743513 42.7610201 -37.38019567 42.73235586 -36.04296875 42.703125 C-33.95166027 42.66174222 -31.86060035 42.62481971 -29.76904297 42.59863281 C-27.7387648 42.57106172 -25.70955475 42.525232 -23.6796875 42.4765625 C-21.86573486 42.4468335 -21.86573486 42.4468335 -20.01513672 42.41650391 C-17.07473795 42.20765144 -17.07473795 42.20765144 -15.11010742 40.88549805 C-13.43977859 38.04847374 -13.59519914 35.62825334 -13.55859375 32.35546875 C-13.53216797 31.03869141 -13.50574219 29.72191406 -13.47851562 28.36523438 C-13.46363674 26.97266862 -13.44997579 25.58008935 -13.4375 24.1875 C-13.41360936 22.1292854 -13.38527611 20.0714797 -13.34571838 18.01350403 C-13.31039018 16.13832152 -13.29040399 14.26286853 -13.27124023 12.38745117 C-12.9257619 8.072859 -12.25652437 4.39613819 -9.3125 1.125 C-5.98568125 -0.49345236 -3.65454126 -0.44880331 0 0 Z " fill="#5AC6A2" transform="translate(178,122)"/>
<path d="M0 0 C2.99714436 1.75919343 4.6661447 2.80901267 5.61962891 6.21044922 C6.06473499 9.47475095 6.16317633 12.65066789 6.2109375 15.9453125 C6.2389799 17.28256487 6.26764414 18.61980433 6.296875 19.95703125 C6.33825778 22.04833973 6.37518029 24.13939965 6.40136719 26.23095703 C6.42893828 28.2612352 6.474768 30.29044525 6.5234375 32.3203125 C6.54325684 33.52961426 6.56307617 34.73891602 6.58349609 35.98486328 C6.79234856 38.92526205 6.79234856 38.92526205 8.11450195 40.88989258 C10.95152626 42.56022141 13.37174666 42.40480086 16.64453125 42.44140625 C17.96130859 42.46783203 19.27808594 42.49425781 20.63476562 42.52148438 C22.02733138 42.53636326 23.41991065 42.55002421 24.8125 42.5625 C26.8707146 42.58639064 28.9285203 42.61472389 30.98649597 42.65428162 C32.86167848 42.68960982 34.73713147 42.70959601 36.61254883 42.72875977 C40.927141 43.0742381 44.60386181 43.74347563 47.875 46.6875 C49.49345236 50.01431875 49.44880331 52.34545874 49 56 C47.51489258 58.68554688 47.51489258 58.68554688 45 61 C41.91823587 61.48329365 39.40036305 61.65597811 36.32421875 61.59375 C35.4808345 61.59379028 34.63745026 61.59383057 33.76850891 61.59387207 C31.98565212 61.58851682 30.20279593 61.5709336 28.42016602 61.54199219 C25.70710074 61.5003012 22.99653336 61.50091149 20.28320312 61.5078125 C18.54685792 61.49731318 16.81052543 61.48437109 15.07421875 61.46875 C13.86761848 61.46844788 13.86761848 61.46844788 12.63664246 61.46813965 C7.38745556 61.35929467 3.70012296 60.35690841 -1 58 C-1 57.34 -1 56.68 -1 56 C-1.928125 55.814375 -1.928125 55.814375 -2.875 55.625 C-5 55 -5 55 -7 53 C-7 52.01 -7 51.02 -7 50 C-7.66 50 -8.32 50 -9 50 C-11.77605102 44.46402708 -12.46720927 40.07903744 -12.46875 33.92578125 C-12.47636353 33.07952682 -12.48397705 32.2332724 -12.49182129 31.3613739 C-12.50256892 29.58396339 -12.50549725 27.80648999 -12.50097656 26.02905273 C-12.49999886 23.30932494 -12.54178863 20.59237197 -12.5859375 17.87304688 C-12.59114124 16.14063086 -12.59383275 14.40820508 -12.59375 12.67578125 C-12.61014526 11.86530838 -12.62654053 11.05483551 -12.64343262 10.21980286 C-12.59519853 6.29120438 -12.39075173 4.42321836 -9.68164062 1.48901367 C-6.14198038 -0.47642586 -3.99445146 -0.57063592 0 0 Z " fill="#5AC6A2" transform="translate(21,122)"/>
<path d="M0 0 C0.84338425 -0.00004028 1.68676849 -0.00008057 2.55570984 -0.00012207 C4.33856663 0.00523318 6.12142282 0.0228164 7.90405273 0.05175781 C10.61711801 0.0934488 13.32768539 0.09283851 16.04101562 0.0859375 C17.77736083 0.09643682 19.51369332 0.10937891 21.25 0.125 C22.05440018 0.12520142 22.85880035 0.12540283 23.68757629 0.12561035 C28.93676319 0.23445533 32.62409579 1.23684159 37.32421875 3.59375 C37.32421875 4.25375 37.32421875 4.91375 37.32421875 5.59375 C37.94296875 5.7175 38.56171875 5.84125 39.19921875 5.96875 C41.32421875 6.59375 41.32421875 6.59375 43.32421875 8.59375 C43.32421875 9.58375 43.32421875 10.57375 43.32421875 11.59375 C43.98421875 11.59375 44.64421875 11.59375 45.32421875 11.59375 C48.10026977 17.12972292 48.79142802 21.51471256 48.79296875 27.66796875 C48.80438904 28.93735039 48.80438904 28.93735039 48.81604004 30.2323761 C48.82678767 32.00978661 48.829716 33.78726001 48.82519531 35.56469727 C48.82421761 38.28442506 48.86600738 41.00137803 48.91015625 43.72070312 C48.91535999 45.45311914 48.9180515 47.18554492 48.91796875 48.91796875 C48.94256165 50.13367805 48.94256165 50.13367805 48.96765137 51.37394714 C48.91941728 55.30254562 48.71497048 57.17053164 46.00585938 60.10473633 C42.46619913 62.07017586 40.31867021 62.16438592 36.32421875 61.59375 C33.32707439 59.83455657 31.65807405 58.78473733 30.70458984 55.38330078 C30.25948376 52.11899905 30.16104242 48.94308211 30.11328125 45.6484375 C30.08523885 44.31118513 30.05657461 42.97394567 30.02734375 41.63671875 C29.98596097 39.54541027 29.94903846 37.45435035 29.92285156 35.36279297 C29.89528047 33.3325148 29.84945075 31.30330475 29.80078125 29.2734375 C29.77105225 27.45948486 29.77105225 27.45948486 29.74072266 25.60888672 C29.53187019 22.66848795 29.53187019 22.66848795 28.2097168 20.70385742 C25.37269249 19.03352859 22.95247209 19.18894914 19.6796875 19.15234375 C18.36291016 19.12591797 17.04613281 19.09949219 15.68945312 19.07226562 C14.29688737 19.05738674 12.9043081 19.04372579 11.51171875 19.03125 C9.45350415 19.00735936 7.39569845 18.97902611 5.33772278 18.93946838 C3.46254027 18.90414018 1.58708728 18.88415399 -0.28833008 18.86499023 C-4.60292225 18.5195119 -8.27964306 17.85027437 -11.55078125 14.90625 C-13.16923361 11.57943125 -13.12458456 9.24829126 -12.67578125 5.59375 C-9.557259 -0.04553074 -5.95763571 -0.12051854 0 0 Z " fill="#5AC6A2" transform="translate(134.67578125,8.40625)"/>
<path d="M0 0 C1.26938164 -0.01142029 1.26938164 -0.01142029 2.56440735 -0.02307129 C4.34181786 -0.03381892 6.11929126 -0.03674725 7.89672852 -0.03222656 C10.61645631 -0.03124886 13.33340928 -0.07303863 16.05273438 -0.1171875 C17.78515039 -0.12239124 19.51757617 -0.12508275 21.25 -0.125 C22.06047287 -0.14139526 22.87094574 -0.15779053 23.70597839 -0.17468262 C27.63457687 -0.12644853 29.50256289 0.07799827 32.43676758 2.78710938 C34.40220711 6.32676962 34.49641717 8.47429854 33.92578125 12.46875 C32.18393514 15.43633968 31.13122273 17.12707898 27.76293945 18.08178711 C24.24903321 18.56105235 20.75910756 18.70014792 17.21875 18.78515625 C16.13065788 18.8163279 16.13065788 18.8163279 15.02058411 18.84812927 C12.71824012 18.91317215 10.41578843 18.97229773 8.11328125 19.03125 C6.54621311 19.07447835 4.9791556 19.11809398 3.41210938 19.16210938 C-0.41655811 19.26880668 -4.24533325 19.37019969 -8.07421875 19.46875 C-8.09403809 20.43699707 -8.11385742 21.40524414 -8.13427734 22.40283203 C-8.21068093 26.01490102 -8.299343 29.62658532 -8.39160156 33.23828125 C-8.42974836 34.79777398 -8.46462557 36.3573504 -8.49609375 37.91699219 C-8.542057 40.16631874 -8.59999683 42.41507615 -8.66015625 44.6640625 C-8.67748306 45.70036301 -8.67748306 45.70036301 -8.69515991 46.75759888 C-8.84650734 51.78658329 -9.29862633 56.49586953 -12.76171875 60.34375 C-16.0885375 61.96220236 -18.41967749 61.91755331 -22.07421875 61.46875 C-24.75976562 59.98364258 -24.75976562 59.98364258 -27.07421875 57.46875 C-27.5575124 54.38698587 -27.73019686 51.86911305 -27.66796875 48.79296875 C-27.66800903 47.9495845 -27.66804932 47.10620026 -27.66809082 46.23725891 C-27.66273557 44.45440212 -27.64515235 42.67154593 -27.61621094 40.88891602 C-27.57451995 38.17585074 -27.57513024 35.46528336 -27.58203125 32.75195312 C-27.57153193 31.01560792 -27.55858984 29.27927543 -27.54296875 27.54296875 C-27.54276733 26.73856857 -27.54256592 25.9341684 -27.5423584 25.10539246 C-27.43351342 19.85620556 -26.43112716 16.16887296 -24.07421875 11.46875 C-23.41421875 11.46875 -22.75421875 11.46875 -22.07421875 11.46875 C-21.88859375 10.540625 -21.88859375 10.540625 -21.69921875 9.59375 C-21.07421875 7.46875 -21.07421875 7.46875 -19.07421875 5.46875 C-18.08421875 5.46875 -17.09421875 5.46875 -16.07421875 5.46875 C-16.07421875 4.80875 -16.07421875 4.14875 -16.07421875 3.46875 C-10.53824583 0.69269898 -6.15325619 0.00154073 0 0 Z " fill="#5AC6A2" transform="translate(36.07421875,8.53125)"/>
<path d="M0 0 C0.99 0.33 1.98 0.66 3 1 C0.03 3.475 0.03 3.475 -3 6 C-2.42655063 3.13275314 -2.1385485 2.1385485 0 0 Z M-5 6 C-3 7 -3 7 -3 7 Z " fill="#4BAD7A" transform="translate(17,14)"/>
</svg>
