<?xml version="1.0" encoding="UTF-8"?>
<svg version="1.1" xmlns="http://www.w3.org/2000/svg" width="16" height="16">
<path d="M0 0 C0 1.98 0 3.96 0 6 C-5.41538462 8.21538462 -5.41538462 8.21538462 -8.375 7.125 C-8.91125 6.75375 -9.4475 6.3825 -10 6 C-10 4.02 -10 2.04 -10 0 C-6.22996568 -2.61002376 -4.07631429 -1.66758312 0 0 Z " fill="#5DC5A0" transform="translate(13,5)"/>
<path d="M0 0 C0.2475 0.61875 0.495 1.2375 0.75 1.875 C2.20628639 4.35068687 3.37812506 4.95125002 6 6 C5 7 5 7 2.5 7.125 C0 7 0 7 -1 6 C-1.125 3.5 -1.125 3.5 -1 1 C-0.67 0.67 -0.34 0.34 0 0 Z " fill="#4FCCAF" transform="translate(1,9)"/>
<path d="M0 0 C0.66 0.33 1.32 0.66 2 1 C2.042721 2.66611905 2.04063832 4.33382885 2 6 C1 7 1 7 -1.5625 7.0625 C-2.7690625 7.0315625 -2.7690625 7.0315625 -4 7 C-4.33 6.34 -4.66 5.68 -5 5 C-3.68 4.67 -2.36 4.34 -1 4 C-0.67 2.68 -0.34 1.36 0 0 Z " fill="#4FCCAF" transform="translate(14,9)"/>
<path d="M0 0 C2.5 0.125 2.5 0.125 3.5 1.125 C3.54063832 2.79117115 3.542721 4.45888095 3.5 6.125 C2.51 6.62 2.51 6.62 1.5 7.125 C1.37625 6.196875 1.37625 6.196875 1.25 5.25 C0.68741541 2.94062433 0.68741541 2.94062433 -1.5625 1.875 C-2.201875 1.6275 -2.84125 1.38 -3.5 1.125 C-2.5 0.125 -2.5 0.125 0 0 Z " fill="#4FCCAF" transform="translate(12.5,-0.125)"/>
<path d="M0 0 C1.2065625 0.0309375 1.2065625 0.0309375 2.4375 0.0625 C2.7675 0.7225 3.0975 1.3825 3.4375 2.0625 C2.81875 2.145 2.2 2.2275 1.5625 2.3125 C-0.74687567 2.87508459 -0.74687567 2.87508459 -1.8125 5.125 C-2.06 5.764375 -2.3075 6.40375 -2.5625 7.0625 C-3.5625 6.0625 -3.5625 6.0625 -3.6875 3.5625 C-3.51717518 0.15600356 -3.41884482 0.08338646 0 0 Z " fill="#4FCCAF" transform="translate(3.5625,-0.0625)"/>
</svg>
