<?xml version="1.0" encoding="UTF-8"?>
<svg version="1.1" xmlns="http://www.w3.org/2000/svg" width="32" height="32">
<path d="M0 0 C1.81119819 1.81119819 1.21518878 4.49781392 1.25 6.9375 C1.27578125 8.01902344 1.3015625 9.10054687 1.328125 10.21484375 C1.21984375 11.13394531 1.1115625 12.05304687 1 13 C-2.56178168 15.37452112 -4.74546648 15.71636443 -9 16 C-15.45833333 14.54166667 -15.45833333 14.54166667 -17 13 C-17.15126231 11.02486333 -17.22173766 9.04321865 -17.25 7.0625 C-17.27578125 5.98097656 -17.3015625 4.89945313 -17.328125 3.78515625 C-17.16570313 2.40650391 -17.16570313 2.40650391 -17 1 C-11.17065875 -2.8862275 -6.44232778 -1.94334681 0 0 Z M-14 6 C-14 7.32 -14 8.64 -14 10 C-12.68 10.33 -11.36 10.66 -10 11 C-10 9.68 -10 8.36 -10 7 C-11.32 6.67 -12.64 6.34 -14 6 Z M-6 7 C-6 8.32 -6 9.64 -6 11 C-4.68 10.67 -3.36 10.34 -2 10 C-2 8.68 -2 7.36 -2 6 C-4.0745356 5.8509288 -4.0745356 5.8509288 -6 7 Z " fill="#5DC6A0" transform="translate(24,9)"/>
<path d="M0 0 C1.32 0 2.64 0 4 0 C4.05399736 1.45792884 4.09279177 2.91642712 4.125 4.375 C4.14820313 5.18710937 4.17140625 5.99921875 4.1953125 6.8359375 C4 9 4 9 2 11 C-0.1640625 11.1953125 -0.1640625 11.1953125 -2.625 11.125 C-3.44226563 11.10695313 -4.25953125 11.08890625 -5.1015625 11.0703125 C-5.72804688 11.04710937 -6.35453125 11.02390625 -7 11 C-7 9.68 -7 8.36 -7 7 C-4.69 7 -2.38 7 0 7 C0 4.69 0 2.38 0 0 Z " fill="#5FC69E" transform="translate(27,20)"/>
<path d="M0 0 C1.32 0 2.64 0 4 0 C4 2.31 4 4.62 4 7 C6.31 7 8.62 7 11 7 C11 8.32 11 9.64 11 11 C9.54207116 11.05399736 8.08357288 11.09279177 6.625 11.125 C5.81289062 11.14820313 5.00078125 11.17140625 4.1640625 11.1953125 C2 11 2 11 0 9 C-0.1953125 6.8359375 -0.1953125 6.8359375 -0.125 4.375 C-0.10695312 3.55773437 -0.08890625 2.74046875 -0.0703125 1.8984375 C-0.04710938 1.27195312 -0.02390625 0.64546875 0 0 Z " fill="#5FC69E" transform="translate(1,20)"/>
<path d="M0 0 C1.45792884 -0.05399736 2.91642712 -0.09279177 4.375 -0.125 C5.18710937 -0.14820312 5.99921875 -0.17140625 6.8359375 -0.1953125 C9 0 9 0 11 2 C11.1953125 4.1640625 11.1953125 4.1640625 11.125 6.625 C11.10695313 7.44226563 11.08890625 8.25953125 11.0703125 9.1015625 C11.03550781 10.04128906 11.03550781 10.04128906 11 11 C9.68 11 8.36 11 7 11 C7 8.69 7 6.38 7 4 C4.69 4 2.38 4 0 4 C0 2.68 0 1.36 0 0 Z " fill="#5FC69E" transform="translate(20,1)"/>
<path d="M0 0 C1.21816406 0.03480469 1.21816406 0.03480469 2.4609375 0.0703125 C3.68683594 0.09738281 3.68683594 0.09738281 4.9375 0.125 C5.87722656 0.15980469 5.87722656 0.15980469 6.8359375 0.1953125 C6.8359375 1.5153125 6.8359375 2.8353125 6.8359375 4.1953125 C4.5259375 4.1953125 2.2159375 4.1953125 -0.1640625 4.1953125 C-0.1640625 6.5053125 -0.1640625 8.8153125 -0.1640625 11.1953125 C-1.4840625 11.1953125 -2.8040625 11.1953125 -4.1640625 11.1953125 C-4.21805986 9.73738366 -4.25685427 8.27888538 -4.2890625 6.8203125 C-4.32386719 5.60214844 -4.32386719 5.60214844 -4.359375 4.359375 C-4.08041412 1.26848842 -3.09088658 0.27896088 0 0 Z " fill="#5FC69E" transform="translate(5.1640625,0.8046875)"/>
</svg>
