<?xml version="1.0" encoding="UTF-8"?>
<svg version="1.1" xmlns="http://www.w3.org/2000/svg" width="192" height="192">
<path d="M0 0 C0.79801025 0.30397705 1.59602051 0.6079541 2.41821289 0.92114258 C5.05517628 1.93371823 7.68391908 2.96587324 10.3125 4 C11.28767578 4.37817871 12.26285156 4.75635742 13.26757812 5.14599609 C16.26735518 6.31273723 19.25965599 7.49681064 22.25 8.6875 C23.66188599 9.23954102 23.66188599 9.23954102 25.10229492 9.80273438 C30.35184967 11.92996109 34.65793197 13.69086393 37.3125 19 C37.41364178 20.8271078 37.45088383 22.65790083 37.45776367 24.48779297 C37.46414352 25.63593475 37.47052338 26.78407654 37.47709656 27.9670105 C37.47820938 29.21281891 37.4793222 30.45862732 37.48046875 31.7421875 C37.48546135 33.65476852 37.48546135 33.65476852 37.49055481 35.60598755 C37.49562598 38.30783569 37.49839468 41.00958329 37.49780273 43.71142578 C37.4977012 47.17047397 37.51134378 50.62931649 37.52857494 54.08831596 C37.54238201 57.3895988 37.54178412 60.6908797 37.54296875 63.9921875 C37.55015427 65.23394745 37.55733978 66.4757074 37.56474304 67.75509644 C37.56166641 68.90954254 37.55858978 70.06398865 37.55541992 71.25341797 C37.55684494 72.26886688 37.55826996 73.2843158 37.55973816 74.33053589 C37.30521799 77.07862488 36.79550042 78.69152219 35.3125 81 C33.36474609 82.30639648 33.36474609 82.30639648 30.9609375 83.43359375 C30.06342773 83.85495605 29.16591797 84.27631836 28.24121094 84.71044922 C23.18199607 86.93808951 18.07778015 89.0296386 12.9375 91.0625 C11.89078125 91.48337891 10.8440625 91.90425781 9.765625 92.33789062 C6.62516587 93.58825861 3.47271857 94.80053329 0.3125 96 C-0.72551758 96.40718262 -1.76353516 96.81436523 -2.83300781 97.23388672 C-12.85816134 100.93413752 -19.63361698 99.80084691 -29.375 96 C-30.17373535 95.69529785 -30.9724707 95.3905957 -31.79541016 95.07666016 C-34.43107479 94.06348936 -37.05897836 93.03154601 -39.6875 92 C-41.1422876 91.44070801 -41.1422876 91.44070801 -42.62646484 90.87011719 C-45.61149687 89.72064987 -48.58786848 88.55109194 -51.5625 87.375 C-52.49537842 87.01535156 -53.42825684 86.65570313 -54.3894043 86.28515625 C-55.26894775 85.93066406 -56.14849121 85.57617188 -57.0546875 85.2109375 C-57.82925293 84.90462402 -58.60381836 84.59831055 -59.40185547 84.28271484 C-62.74616044 82.4058746 -64.43349665 81.20457502 -66.6875 78 C-67.44583873 73.52516694 -67.38763343 69.09200407 -67.3515625 64.5625 C-67.35634613 63.24967041 -67.36112976 61.93684082 -67.36605835 60.58422852 C-67.37341486 57.81008373 -67.36276586 55.03674598 -67.33935547 52.26269531 C-67.31086572 48.71470402 -67.32727664 45.16860373 -67.35721779 41.62068176 C-67.37967705 38.22613804 -67.36393158 34.83209739 -67.3515625 31.4375 C-67.36168365 30.16656494 -67.37180481 28.89562988 -67.38223267 27.58618164 C-67.26621867 18.86548753 -67.26621867 18.86548753 -64.58764648 14.85961914 C-61.37377599 12.79883528 -58.16980418 11.18013368 -54.62109375 9.80859375 C-53.94635513 9.5366066 -53.27161652 9.26461945 -52.57643127 8.98439026 C-50.43054692 8.12335511 -48.27796875 7.28063924 -46.125 6.4375 C-44.70724114 5.86893736 -43.28991908 5.29928424 -41.87304688 4.72851562 C-38.45411553 3.35855157 -35.02254848 2.02616777 -31.57879639 0.71990967 C-29.815297 0.0486451 -28.05800839 -0.63887349 -26.30126953 -1.32763672 C-16.41393317 -4.9799137 -9.6044907 -3.7468011 0 0 Z M-19.8203125 15.53125 C-20.62597656 15.84707031 -21.43164062 16.16289063 -22.26171875 16.48828125 C-23.10347656 16.82214844 -23.94523437 17.15601563 -24.8125 17.5 C-25.66199219 17.83386719 -26.51148438 18.16773438 -27.38671875 18.51171875 C-29.48818553 19.33813827 -31.58836391 20.1676821 -33.6875 21 C-33.6875 21.66 -33.6875 22.32 -33.6875 23 C-31.00622526 24.04053969 -28.31952404 25.0573467 -25.625 26.0625 C-24.87283203 26.35705078 -24.12066406 26.65160156 -23.34570312 26.95507812 C-15.50959613 29.83849412 -9.99716018 28.31501664 -2.25 25.4375 C-1.01378906 24.98246094 0.22242188 24.52742188 1.49609375 24.05859375 C2.42550781 23.70925781 3.35492188 23.35992187 4.3125 23 C4.3125 22.34 4.3125 21.68 4.3125 21 C1.35630781 19.8278551 -1.60278789 18.66322524 -4.5625 17.5 C-5.82513672 16.99919922 -5.82513672 16.99919922 -7.11328125 16.48828125 C-7.91894531 16.17246094 -8.72460938 15.85664062 -9.5546875 15.53125 C-10.29831543 15.23798828 -11.04194336 14.94472656 -11.80810547 14.64257812 C-14.98843861 13.5552 -16.78302754 14.33344748 -19.8203125 15.53125 Z M-49.6875 35 C-49.6875 46.22 -49.6875 57.44 -49.6875 69 C-45.418125 70.65 -41.14875 72.3 -36.75 74 C-35.40172119 74.52207031 -34.05344238 75.04414062 -32.66430664 75.58203125 C-31.61106201 75.98808594 -30.55781738 76.39414063 -29.47265625 76.8125 C-28.38863525 77.23144531 -27.30461426 77.65039062 -26.18774414 78.08203125 C-23.97495103 79.05744265 -23.97495103 79.05744265 -22.6875 79 C-22.6875 68.11 -22.6875 57.22 -22.6875 46 C-28.30872878 43.18938561 -33.77484532 40.61583077 -39.5625 38.25 C-40.32046875 37.93417969 -41.0784375 37.61835937 -41.859375 37.29296875 C-45.64700668 35.60607244 -45.64700668 35.60607244 -49.6875 35 Z M12.90234375 37.15234375 C11.83048828 37.59900391 10.75863281 38.04566406 9.65429688 38.50585938 C8.53087891 38.97830078 7.40746094 39.45074219 6.25 39.9375 C4.55907227 40.64036133 4.55907227 40.64036133 2.83398438 41.35742188 C-2.26757685 43.12505907 -2.26757685 43.12505907 -6.6875 46 C-6.77593793 48.44830426 -6.80278752 50.86820599 -6.78515625 53.31640625 C-6.7837413 54.04746078 -6.78232635 54.77851532 -6.78086853 55.53172302 C-6.77525408 57.87535632 -6.76269922 60.21889539 -6.75 62.5625 C-6.74498686 64.14778508 -6.74042363 65.73307166 -6.73632812 67.31835938 C-6.72527997 71.2122761 -6.70800572 75.10612205 -6.6875 79 C-3.12451525 77.70966779 0.43780081 76.41749914 4 75.125 C5.00740234 74.76019531 6.01480469 74.39539063 7.05273438 74.01953125 C8.02919922 73.66503906 9.00566406 73.31054688 10.01171875 72.9453125 C11.35496216 72.45828857 11.35496216 72.45828857 12.7253418 71.96142578 C15.27018151 71.01572617 17.79180002 70.00827999 20.3125 69 C20.3125 57.78 20.3125 46.56 20.3125 35 C17.50498918 35 15.49299074 36.07120096 12.90234375 37.15234375 Z " fill="#5CC6A0" transform="translate(110.6875,48)"/>
<path d="M0 0 C4.40271927 0.44773416 5.70845473 1.13970967 8.6875 4.375 C9.20834722 7.42027761 9.41327669 9.89917231 9.38671875 12.9453125 C9.39387405 13.78158173 9.40102936 14.61785095 9.40840149 15.47946167 C9.41617891 17.2496433 9.41116528 19.01992081 9.39428711 20.79003906 C9.37520428 23.47129722 9.41428691 26.14726461 9.45898438 28.828125 C9.50562142 38.20041944 9.40538512 46.10335245 2.6875 53.375 C0.14628334 55.64654007 -2.38831423 57.6228563 -5.3125 59.375 C-5.83118652 59.72119385 -6.34987305 60.0673877 -6.88427734 60.42407227 C-10.54281681 61.85681017 -14.21730572 61.72073868 -18.09375 61.74609375 C-19.3694989 61.75963646 -19.3694989 61.75963646 -20.67102051 61.77345276 C-22.46635424 61.78793757 -24.26174055 61.7968376 -26.05712891 61.80053711 C-28.80330918 61.8124601 -31.54726072 61.86168202 -34.29296875 61.91210938 C-36.03905155 61.92157109 -37.78514812 61.92880733 -39.53125 61.93359375 C-40.35113403 61.95312607 -41.17101807 61.97265839 -42.01574707 61.99278259 C-46.11927235 61.96029142 -47.71000274 61.92836032 -50.83007812 59.06274414 C-52.77545122 55.53563406 -52.88999755 53.34529565 -52.3125 49.375 C-50.09386971 46.46782927 -48.79305071 45.53518357 -45.3125 44.375 C-42.92998382 44.26987037 -40.54490219 44.21977053 -38.16015625 44.19921875 C-36.72980291 44.17602562 -35.29946431 44.15190849 -33.86914062 44.12695312 C-31.61977179 44.09181825 -29.37094801 44.06247586 -27.12133789 44.04907227 C-24.94611213 44.0335843 -22.77246419 43.99338406 -20.59765625 43.94921875 C-19.29707275 43.93463623 -17.99648926 43.92005371 -16.65649414 43.9050293 C-13.30805795 43.60826641 -13.30805795 43.60826641 -10.88867188 41.79003906 C-8.72496084 38.47476186 -8.81426721 36.10321034 -8.80859375 32.16015625 C-8.79917252 31.46740097 -8.78975128 30.77464569 -8.78004456 30.06089783 C-8.75143774 27.85279624 -8.74831411 25.6457717 -8.75 23.4375 C-8.74638481 21.23295617 -8.73676579 19.02919522 -8.70924377 16.82481384 C-8.68480861 14.82222025 -8.6825231 12.81939274 -8.68139648 10.81665039 C-8.08764502 5.27719675 -5.84067861 0.6612089 0 0 Z " fill="#59C69F" transform="translate(174.3125,121.625)"/>
<path d="M0 0 C3.19780987 2.35628096 4.3175828 4.16837191 5 8 C5.10265825 10.34223367 5.15481689 12.68686143 5.17578125 15.03125 C5.19896864 16.41277584 5.22308553 17.79428633 5.24804688 19.17578125 C5.28320376 21.34174062 5.31254405 23.50712927 5.32592773 25.67333984 C5.34141529 27.77249931 5.38160498 29.87002375 5.42578125 31.96875 C5.44036377 33.22107422 5.45494629 34.47339844 5.4699707 35.76367188 C5.77714414 39.01759555 5.77714414 39.01759555 7.58496094 41.40795898 C10.89942759 43.59292027 13.26148335 43.49821796 17.21484375 43.50390625 C17.90759903 43.51332748 18.60035431 43.52274872 19.31410217 43.53245544 C21.52220376 43.56106226 23.7292283 43.56418589 25.9375 43.5625 C28.14204383 43.56611519 30.34580478 43.57573421 32.55018616 43.60325623 C34.55277975 43.62769139 36.55560726 43.6299769 38.55834961 43.63110352 C43.20765145 44.12944324 45.74133447 45.74133447 49 49 C49.44040713 52.89026295 49.42507998 55.23235884 47.51220703 58.68676758 C44.03919204 61.88470898 40.92585205 61.73841881 36.4296875 61.69921875 C35.59341827 61.70637405 34.75714905 61.71352936 33.89553833 61.72090149 C32.1253567 61.72867891 30.35507919 61.72366528 28.58496094 61.70678711 C25.90370278 61.68770428 23.22773539 61.72678691 20.546875 61.77148438 C11.17458056 61.81812142 3.27164755 61.71788512 -4 55 C-6.27154007 52.45878334 -8.2478563 49.92418577 -10 47 C-10.34619385 46.48131348 -10.6923877 45.96262695 -11.04907227 45.42822266 C-12.48181017 41.76968319 -12.34573868 38.09519428 -12.37109375 34.21875 C-12.38012222 33.36825073 -12.3891507 32.51775146 -12.39845276 31.64147949 C-12.41293757 29.84614576 -12.4218376 28.05075945 -12.42553711 26.25537109 C-12.4374601 23.50919082 -12.48668202 20.76523928 -12.53710938 18.01953125 C-12.54657109 16.27344845 -12.55380733 14.52735188 -12.55859375 12.78125 C-12.57812607 11.96136597 -12.59765839 11.14148193 -12.61778259 10.29675293 C-12.58529142 6.19322765 -12.55336032 4.60249726 -9.68774414 1.48242188 C-6.16063406 -0.46295122 -3.97029565 -0.57749755 0 0 Z " fill="#5AC69F" transform="translate(21,122)"/>
<path d="M0 0 C0.83626923 -0.0071553 1.67253845 -0.01431061 2.53414917 -0.02168274 C4.3043308 -0.02946016 6.07460831 -0.02444653 7.84472656 -0.00756836 C10.52598472 0.01151447 13.20195211 -0.02756816 15.8828125 -0.07226562 C25.25510694 -0.11890267 33.15803995 -0.01866637 40.4296875 6.69921875 C42.70122757 9.24043541 44.6775438 11.77503298 46.4296875 14.69921875 C46.77588135 15.21790527 47.1220752 15.7365918 47.47875977 16.27099609 C48.91149767 19.92953556 48.77542618 23.60402447 48.80078125 27.48046875 C48.81432396 28.75621765 48.81432396 28.75621765 48.82814026 30.05773926 C48.84262507 31.85307299 48.8515251 33.6484593 48.85522461 35.44384766 C48.8671476 38.19002793 48.91636952 40.93397947 48.96679688 43.6796875 C48.97625859 45.4257703 48.98349483 47.17186687 48.98828125 48.91796875 C49.00781357 49.73785278 49.02734589 50.55773682 49.04747009 51.40246582 C49.01497892 55.5059911 48.98304782 57.09672149 46.11743164 60.21679688 C42.59032156 62.16216997 40.39998315 62.2767163 36.4296875 61.69921875 C33.52251677 59.48058846 32.58987107 58.17976946 31.4296875 54.69921875 C31.32455787 52.31670257 31.27445803 49.93162094 31.25390625 47.546875 C31.23071312 46.11652166 31.20659599 44.68618306 31.18164062 43.25585938 C31.14650575 41.00649054 31.11716336 38.75766676 31.10375977 36.50805664 C31.0882718 34.33283088 31.04807156 32.15918294 31.00390625 29.984375 C30.98932373 28.6837915 30.97474121 27.38320801 30.9597168 26.04321289 C30.66486113 22.69249289 30.66486113 22.69249289 28.83105469 20.27758789 C25.58282888 18.14259604 23.30633542 18.18569907 19.43359375 18.16015625 C18.76303452 18.14836334 18.09247528 18.13657043 17.40159607 18.12442017 C15.26488956 18.0892203 13.1291599 18.08000021 10.9921875 18.07421875 C8.85908047 18.05782692 6.72640589 18.0356687 4.5934906 18.00259399 C2.65565106 17.97408417 0.71756812 17.96385491 -1.22045898 17.95458984 C-5.20250564 17.65102445 -8.05949142 16.68906705 -11.3828125 14.51171875 C-13.33993803 11.52452715 -12.98905487 9.16879839 -12.5703125 5.69921875 C-9.47045997 0.12405027 -5.92002112 -0.05161403 0 0 Z " fill="#5AC69F" transform="translate(134.5703125,8.30078125)"/>
<path d="M0 0 C1.2757489 -0.01354271 1.2757489 -0.01354271 2.57727051 -0.02735901 C4.37260424 -0.04184382 6.16799055 -0.05074385 7.96337891 -0.05444336 C10.70955918 -0.06636635 13.45351072 -0.11558827 16.19921875 -0.16601562 C17.94530155 -0.17547734 19.69139812 -0.18271358 21.4375 -0.1875 C22.25738403 -0.20703232 23.07726807 -0.22656464 23.92199707 -0.24668884 C28.02552235 -0.21419767 29.61625274 -0.18226657 32.73632812 2.68334961 C34.68170122 6.21045969 34.79624755 8.4007981 34.21875 12.37109375 C31.85944354 15.57300966 30.05043645 16.6783411 26.21875 17.37109375 C23.86540599 17.50818518 21.50899502 17.59562603 19.15234375 17.65234375 C18.47704117 17.67075317 17.80173859 17.6891626 17.10597229 17.70812988 C14.22745964 17.78649807 11.34872559 17.85454548 8.4699707 17.92333984 C6.36398099 17.9751518 4.25818491 18.03235497 2.15234375 18.08984375 C0.2660022 18.1352832 0.2660022 18.1352832 -1.65844727 18.18164062 C-4.81266275 18.23812097 -4.81266275 18.23812097 -7.78125 19.37109375 C-8.9333964 22.82753295 -8.9576335 25.62441279 -9.02734375 29.26953125 C-9.0602848 30.64974586 -9.09349641 32.02995404 -9.12695312 33.41015625 C-9.17430591 35.57807975 -9.2187479 37.74597765 -9.25805664 39.9140625 C-9.29794213 42.01199152 -9.3494444 44.10939554 -9.40234375 46.20703125 C-9.4273999 47.4604834 -9.45245605 48.71393555 -9.47827148 50.00537109 C-9.83527666 53.97126419 -10.79587838 56.86710548 -12.96875 60.18359375 C-15.9559416 62.14071928 -18.31167036 61.78983612 -21.78125 61.37109375 C-24.46411133 59.87939453 -24.46411133 59.87939453 -26.78125 57.37109375 C-27.30209722 54.32581614 -27.50702669 51.84692144 -27.48046875 48.80078125 C-27.48762405 47.96451202 -27.49477936 47.1282428 -27.50215149 46.26663208 C-27.50992891 44.49645045 -27.50491528 42.72617294 -27.48803711 40.95605469 C-27.46895428 38.27479653 -27.50803691 35.59882914 -27.55273438 32.91796875 C-27.59937142 23.54567431 -27.49913512 15.6427413 -20.78125 8.37109375 C-18.24003334 6.09955368 -15.70543577 4.12323745 -12.78125 2.37109375 C-12.26256348 2.0248999 -11.74387695 1.67870605 -11.20947266 1.32202148 C-7.55093319 -0.11071642 -3.87644428 0.02535507 0 0 Z " fill="#5AC69F" transform="translate(35.78125,8.62890625)"/>
<path d="M0 0 C-1.16571533 0.46897705 -2.33143066 0.9379541 -3.5324707 1.42114258 C-7.85738733 3.16343942 -12.17818137 4.91576313 -16.49780273 6.67114258 C-18.36778653 7.42941947 -20.23887663 8.18497404 -22.11108398 8.93774414 C-24.80227553 10.02035819 -27.48933408 11.11270632 -30.17578125 12.20703125 C-31.01337479 12.54152786 -31.85096832 12.87602448 -32.71394348 13.22065735 C-33.49452621 13.54076279 -34.27510895 13.86086823 -35.0793457 14.19067383 C-36.10859917 14.6070385 -36.10859917 14.6070385 -37.15864563 15.03181458 C-39.30304846 16.15934309 -40.55694131 17.0394128 -42 19 C-42.45587837 21.62079999 -42.45587837 21.62079999 -42.38818359 24.6171875 C-42.39764008 25.76848145 -42.40709656 26.91977539 -42.4168396 28.10595703 C-42.41076691 29.34974121 -42.40469421 30.59352539 -42.3984375 31.875 C-42.40130768 33.15101074 -42.40417786 34.42702148 -42.40713501 35.74169922 C-42.40917835 38.44204116 -42.40513392 41.14157081 -42.39111328 43.84179688 C-42.37402089 47.3021923 -42.38386307 50.76188971 -42.40183067 54.22225952 C-42.41528016 57.52319806 -42.40586244 60.82405236 -42.3984375 64.125 C-42.40451019 65.36878418 -42.41058289 66.61256836 -42.4168396 67.89404297 C-42.40738312 69.04533691 -42.39792664 70.19663086 -42.38818359 71.3828125 C-42.38579681 72.39746582 -42.38341003 73.41211914 -42.38095093 74.45751953 C-42.20133845 77.01369215 -42.20133845 77.01369215 -40.70732117 78.74571228 C-38.93397978 80.04850192 -37.3405536 80.88033777 -35.29467773 81.68579102 C-34.56059189 81.97942032 -33.82650604 82.27304962 -33.07017517 82.57557678 C-31.88881737 83.03509987 -31.88881737 83.03509987 -30.68359375 83.50390625 C-29.87132828 83.82785873 -29.05906281 84.15181122 -28.22218323 84.48558044 C-25.63013661 85.51857245 -23.03423272 86.54135078 -20.4375 87.5625 C-17.83757731 88.58810911 -15.23863872 89.61597038 -12.6421051 90.65013123 C-11.02709639 91.29309356 -9.41006551 91.93100398 -7.7908783 92.56336975 C-2.22453373 94.77546627 -2.22453373 94.77546627 0 97 C-8.08368871 95.86920716 -15.37928429 93.13032427 -22.86987305 89.99682617 C-24.82044412 89.18419037 -26.7795402 88.39526844 -28.74023438 87.60742188 C-30.0005785 87.08733719 -31.26036538 86.56589961 -32.51953125 86.04296875 C-33.64464111 85.57914795 -34.76975098 85.11532715 -35.92895508 84.63745117 C-39.65303762 82.65180672 -41.60283562 81.53397527 -44 78 C-44.74782724 73.52267189 -44.70014138 69.09300161 -44.6640625 64.5625 C-44.66884613 63.24967041 -44.67362976 61.93684082 -44.67855835 60.58422852 C-44.68591486 57.81008373 -44.67526586 55.03674598 -44.65185547 52.26269531 C-44.62336572 48.71470402 -44.63977664 45.16860373 -44.66971779 41.62068176 C-44.69217705 38.22613804 -44.67643158 34.83209739 -44.6640625 31.4375 C-44.67418365 30.16656494 -44.68430481 28.89562988 -44.69473267 27.58618164 C-44.57879298 18.8710736 -44.57879298 18.8710736 -41.91772461 14.86621094 C-38.6124814 12.75213855 -35.29961185 11.11116685 -31.65234375 9.703125 C-30.95863174 9.42402283 -30.26491974 9.14492065 -29.55018616 8.85736084 C-27.35055738 7.97614161 -25.14425019 7.11320675 -22.9375 6.25 C-21.45202512 5.65606927 -19.96699405 5.06102727 -18.48242188 4.46484375 C-3.97212275 -1.32404092 -3.97212275 -1.32404092 0 0 Z " fill="#0EBD76" transform="translate(88,48)"/>
<path d="M0 0 C0 11.88 0 23.76 0 36 C-6.8775467 39.12615759 -13.64844784 42.13067441 -20.6875 44.8125 C-21.90083008 45.27946289 -21.90083008 45.27946289 -23.13867188 45.75585938 C-25.09130917 46.50687372 -27.04548467 47.25388689 -29 48 C-30 47 -30 47 -30.11352539 43.58178711 C-30.11336628 42.06363012 -30.10767226 40.54546771 -30.09765625 39.02734375 C-30.0962413 38.22970108 -30.09482635 37.43205841 -30.09336853 36.61024475 C-30.08775316 34.05262565 -30.07519812 31.49509282 -30.0625 28.9375 C-30.05748698 27.20768355 -30.05292373 25.47786574 -30.04882812 23.74804688 C-30.03777875 19.49866447 -30.02050386 15.24934688 -30 11 C-26.3743845 9.42417552 -22.7448045 7.85790996 -19.11132812 6.30029297 C-17.26997436 5.50858814 -15.43183929 4.70941089 -13.59375 3.91015625 C-11.85351562 3.16572266 -11.85351562 3.16572266 -10.078125 2.40625 C-9.00981445 1.94541016 -7.94150391 1.48457031 -6.84082031 1.00976562 C-4 0 -4 0 0 0 Z M-9.41015625 4.15234375 C-10.48201172 4.59900391 -11.55386719 5.04566406 -12.65820312 5.50585938 C-13.78162109 5.97830078 -14.90503906 6.45074219 -16.0625 6.9375 C-17.75342773 7.64036133 -17.75342773 7.64036133 -19.47851562 8.35742188 C-24.58007685 10.12505907 -24.58007685 10.12505907 -29 13 C-29.08843793 15.44830426 -29.11528752 17.86820599 -29.09765625 20.31640625 C-29.0962413 21.04746078 -29.09482635 21.77851532 -29.09336853 22.53172302 C-29.08775408 24.87535632 -29.07519922 27.21889539 -29.0625 29.5625 C-29.05748686 31.14778508 -29.05292363 32.73307166 -29.04882812 34.31835938 C-29.03777997 38.2122761 -29.02050572 42.10612205 -29 46 C-25.43701525 44.70966779 -21.87469919 43.41749914 -18.3125 42.125 C-17.30509766 41.76019531 -16.29769531 41.39539063 -15.25976562 41.01953125 C-14.28330078 40.66503906 -13.30683594 40.31054688 -12.30078125 39.9453125 C-10.95753784 39.45828857 -10.95753784 39.45828857 -9.5871582 38.96142578 C-7.04231849 38.01572617 -4.52069998 37.00827999 -2 36 C-2 24.78 -2 13.56 -2 2 C-4.80751082 2 -6.81950926 3.07120096 -9.41015625 4.15234375 Z " fill="#0FB97C" transform="translate(133,81)"/>
<path d="M0 0 C4.26941071 0.57866851 7.87456091 1.60263608 11.8359375 3.28515625 C12.7954834 3.68871338 13.7550293 4.09227051 14.74365234 4.50805664 C16.54116943 5.2775061 16.54116943 5.2775061 18.375 6.0625 C22.21125 7.691875 26.0475 9.32125 30 11 C30 22.88 30 34.76 30 47 C28 48 28 48 25.31030273 47.11962891 C24.19598877 46.65991699 23.0816748 46.20020508 21.93359375 45.7265625 C20.72638672 45.2315625 19.51917969 44.7365625 18.27539062 44.2265625 C17.64608643 43.96391602 17.01678223 43.70126953 16.3684082 43.43066406 C14.44478004 42.62803757 12.51689035 41.83649234 10.58789062 41.046875 C1.15455101 37.15455101 1.15455101 37.15455101 0 36 C-0.08855161 33.3337397 -0.11524673 30.69352886 -0.09765625 28.02734375 C-0.0962413 27.22970108 -0.09482635 26.43205841 -0.09336853 25.61024475 C-0.08775316 23.05262565 -0.07519812 20.49509282 -0.0625 17.9375 C-0.05748698 16.20768355 -0.05292373 14.47786574 -0.04882812 12.74804688 C-0.03777875 8.49866447 -0.02050386 4.24934688 0 0 Z M2 2 C2 13.22 2 24.44 2 36 C6.269375 37.65 10.53875 39.3 14.9375 41 C16.28577881 41.52207031 17.63405762 42.04414062 19.02319336 42.58203125 C20.07643799 42.98808594 21.12968262 43.39414063 22.21484375 43.8125 C23.29886475 44.23144531 24.38288574 44.65039062 25.49975586 45.08203125 C27.71254897 46.05744265 27.71254897 46.05744265 29 46 C29 35.11 29 24.22 29 13 C23.37877122 10.18938561 17.91265468 7.61583077 12.125 5.25 C11.36703125 4.93417969 10.6090625 4.61835937 9.828125 4.29296875 C6.04049332 2.60607244 6.04049332 2.60607244 2 2 Z " fill="#0FB97C" transform="translate(59,81)"/>
<path d="M0 0 C1.2757489 -0.01354271 1.2757489 -0.01354271 2.57727051 -0.02735901 C4.37260424 -0.04184382 6.16799055 -0.05074385 7.96337891 -0.05444336 C10.70955918 -0.06636635 13.45351072 -0.11558827 16.19921875 -0.16601562 C17.94530155 -0.17547734 19.69139812 -0.18271358 21.4375 -0.1875 C22.25738403 -0.20703232 23.07726807 -0.22656464 23.92199707 -0.24668884 C28.02552235 -0.21419767 29.61625274 -0.18226657 32.73632812 2.68334961 C34.68170122 6.21045969 34.79624755 8.4007981 34.21875 12.37109375 C32.46875 14.87109375 32.46875 14.87109375 30.21875 16.37109375 C27.96875 16.12109375 27.96875 16.12109375 26.21875 15.37109375 C26.858125 15.08234375 27.4975 14.79359375 28.15625 14.49609375 C30.37081079 13.54285924 30.37081079 13.54285924 31.21875 11.37109375 C31.6355052 8.41320806 31.6355052 8.41320806 31.21875 5.37109375 C28.88014329 2.92160328 27.44435678 2.39883443 24.06176758 1.98291016 C22.84126709 1.97952637 21.6207666 1.97614258 20.36328125 1.97265625 C19.70220871 1.96978607 19.04113617 1.96691589 18.36003113 1.96395874 C16.96226138 1.96192152 15.56446291 1.96742759 14.16674805 1.97998047 C12.05515553 1.99591337 9.94551429 1.98018932 7.83398438 1.9609375 C-2.00644667 1.94594727 -11.06390672 2.70611546 -18.78125 9.37109375 C-24.88352563 18.18549189 -24.99291265 26.34570572 -25.02148438 36.77319336 C-25.03123629 38.93056132 -25.06231975 41.08699388 -25.09375 43.24414062 C-25.10027681 44.62108813 -25.10552855 45.9980424 -25.109375 47.375 C-25.1187207 48.62095947 -25.12806641 49.86691895 -25.13769531 51.15063477 C-24.7573358 54.58715691 -24.26799279 56.00490044 -21.78125 58.37109375 C-17.69959173 58.88130103 -16.25167703 58.68471177 -12.78125 56.37109375 C-12.12125 55.38109375 -11.46125 54.39109375 -10.78125 53.37109375 C-11.13137787 55.96203997 -11.51895965 57.94851485 -12.90625 60.18359375 C-15.94293451 62.10682727 -18.27840009 61.7938515 -21.78125 61.37109375 C-24.46411133 59.87939453 -24.46411133 59.87939453 -26.78125 57.37109375 C-27.30209722 54.32581614 -27.50702669 51.84692144 -27.48046875 48.80078125 C-27.48762405 47.96451202 -27.49477936 47.1282428 -27.50215149 46.26663208 C-27.50992891 44.49645045 -27.50491528 42.72617294 -27.48803711 40.95605469 C-27.46895428 38.27479653 -27.50803691 35.59882914 -27.55273438 32.91796875 C-27.59937142 23.54567431 -27.49913512 15.6427413 -20.78125 8.37109375 C-18.24003334 6.09955368 -15.70543577 4.12323745 -12.78125 2.37109375 C-12.26256348 2.0248999 -11.74387695 1.67870605 -11.20947266 1.32202148 C-7.55093319 -0.11071642 -3.87644428 0.02535507 0 0 Z " fill="#0EBA7C" transform="translate(35.78125,8.62890625)"/>
<path d="M0 0 C2.5 1.75 2.5 1.75 4 4 C3.75 6.25 3.75 6.25 3 8 C2.649375 7.175 2.29875 6.35 1.9375 5.5 C0.15855157 2.61665497 0.15855157 2.61665497 -3.5 2.4375 C-6.95552302 2.65514485 -6.95552302 2.65514485 -8.69384766 4.60668945 C-10.44289608 7.81153462 -10.3883361 10.21198835 -10.3984375 13.85546875 C-10.40130768 14.51654129 -10.40417786 15.17761383 -10.40713501 15.85871887 C-10.40917223 17.25648862 -10.40366616 18.65428709 -10.39111328 20.05200195 C-10.37518038 22.16359447 -10.39090443 24.27323571 -10.41015625 26.38476562 C-10.42514648 36.22519667 -9.66497829 45.28265672 -3 53 C5.81439814 59.10227563 13.97461197 59.21166265 24.40209961 59.24023438 C26.55946757 59.24998629 28.71590013 59.28106975 30.87304688 59.3125 C32.24999438 59.31902681 33.62694865 59.32427855 35.00390625 59.328125 C36.24986572 59.3374707 37.4958252 59.34681641 38.77954102 59.35644531 C42.21746814 58.97593029 43.62293187 58.47427708 46 56 C46.69583813 51.99893076 46.33463357 50.48103575 44 47.125 C43.34 46.42375 42.68 45.7225 42 45 C44.23288365 45.38497994 45.83656302 45.89493337 47.75 47.125 C49.76327172 50.14490758 49.42622232 52.46844367 49 56 C47.50830078 58.68286133 47.50830078 58.68286133 45 61 C41.95472239 61.52084722 39.47582769 61.72577669 36.4296875 61.69921875 C35.59341827 61.70637405 34.75714905 61.71352936 33.89553833 61.72090149 C32.1253567 61.72867891 30.35507919 61.72366528 28.58496094 61.70678711 C25.90370278 61.68770428 23.22773539 61.72678691 20.546875 61.77148438 C11.17458056 61.81812142 3.27164755 61.71788512 -4 55 C-6.27154007 52.45878334 -8.2478563 49.92418577 -10 47 C-10.34619385 46.48131348 -10.6923877 45.96262695 -11.04907227 45.42822266 C-12.48181017 41.76968319 -12.34573868 38.09519428 -12.37109375 34.21875 C-12.38012222 33.36825073 -12.3891507 32.51775146 -12.39845276 31.64147949 C-12.41293757 29.84614576 -12.4218376 28.05075945 -12.42553711 26.25537109 C-12.4374601 23.50919082 -12.48668202 20.76523928 -12.53710938 18.01953125 C-12.54657109 16.27344845 -12.55380733 14.52735188 -12.55859375 12.78125 C-12.57812607 11.96136597 -12.59765839 11.14148193 -12.61778259 10.29675293 C-12.58529142 6.19322765 -12.55336032 4.60249726 -9.68774414 1.48242188 C-6.16063406 -0.46295122 -3.97029565 -0.57749755 0 0 Z " fill="#0EBA7C" transform="translate(21,122)"/>
<path d="M0 0 C0.83626923 -0.0071553 1.67253845 -0.01431061 2.53414917 -0.02168274 C4.3043308 -0.02946016 6.07460831 -0.02444653 7.84472656 -0.00756836 C10.52598472 0.01151447 13.20195211 -0.02756816 15.8828125 -0.07226562 C25.25510694 -0.11890267 33.15803995 -0.01866637 40.4296875 6.69921875 C42.70122757 9.24043541 44.6775438 11.77503298 46.4296875 14.69921875 C46.77588135 15.21790527 47.1220752 15.7365918 47.47875977 16.27099609 C48.91149767 19.92953556 48.77542618 23.60402447 48.80078125 27.48046875 C48.81432396 28.75621765 48.81432396 28.75621765 48.82814026 30.05773926 C48.84262507 31.85307299 48.8515251 33.6484593 48.85522461 35.44384766 C48.8671476 38.19002793 48.91636952 40.93397947 48.96679688 43.6796875 C48.97625859 45.4257703 48.98349483 47.17186687 48.98828125 48.91796875 C49.00781357 49.73785278 49.02734589 50.55773682 49.04747009 51.40246582 C49.01497892 55.5059911 48.98304782 57.09672149 46.11743164 60.21679688 C42.59032156 62.16216997 40.39998315 62.2767163 36.4296875 61.69921875 C33.9921875 59.69921875 33.9921875 59.69921875 32.4296875 57.69921875 C32.7596875 56.70921875 33.0896875 55.71921875 33.4296875 54.69921875 C33.9659375 55.35921875 34.5021875 56.01921875 35.0546875 56.69921875 C37.31455301 58.9489654 37.31455301 58.9489654 40.4921875 59.19921875 C43.45152768 58.97980892 43.45152768 58.97980892 45.08837891 57.09643555 C46.88325332 53.88859575 46.81795778 51.51096845 46.828125 47.84375 C46.83243027 46.85214119 46.83243027 46.85214119 46.83682251 45.84049988 C46.83885973 44.44273013 46.83335366 43.04493166 46.82080078 41.6472168 C46.80486788 39.53562428 46.82059193 37.42598304 46.83984375 35.31445312 C46.85483398 25.47402208 46.09466579 16.41656203 39.4296875 8.69921875 C30.61528936 2.59694312 22.45507553 2.4875561 12.02758789 2.45898438 C9.87021993 2.44923246 7.71378737 2.418149 5.55664062 2.38671875 C4.17969312 2.38019194 2.80273885 2.3749402 1.42578125 2.37109375 C0.17982178 2.36174805 -1.0661377 2.35240234 -2.34985352 2.34277344 C-5.79662922 2.72426783 -7.2074506 3.1937548 -9.5703125 5.69921875 C-10.32042617 9.15650233 -10.32042617 9.15650233 -9.5703125 12.69921875 C-7.21198478 15.17130671 -7.21198478 15.17130671 -4.5703125 16.69921875 C-7.16125872 16.34909088 -9.1477336 15.9615091 -11.3828125 14.57421875 C-13.30604602 11.53753424 -12.99307025 9.20206866 -12.5703125 5.69921875 C-9.47045997 0.12405027 -5.92002112 -0.05161403 0 0 Z " fill="#0EBA7C" transform="translate(134.5703125,8.30078125)"/>
<path d="M0 0 C2.68286133 1.49169922 2.68286133 1.49169922 5 4 C5.52084722 7.04527761 5.72577669 9.52417231 5.69921875 12.5703125 C5.70637405 13.40658173 5.71352936 14.24285095 5.72090149 15.10446167 C5.72867891 16.8746433 5.72366528 18.64492081 5.70678711 20.41503906 C5.68770428 23.09629722 5.72678691 25.77226461 5.77148438 28.453125 C5.81812142 37.82541944 5.71788512 45.72835245 -1 53 C-3.54121666 55.27154007 -6.07581423 57.2478563 -9 59 C-9.51868652 59.34619385 -10.03737305 59.6923877 -10.57177734 60.04907227 C-14.23031681 61.48181017 -17.90480572 61.34573868 -21.78125 61.37109375 C-23.0569989 61.38463646 -23.0569989 61.38463646 -24.35852051 61.39845276 C-26.15385424 61.41293757 -27.94924055 61.4218376 -29.74462891 61.42553711 C-32.49080918 61.4374601 -35.23476072 61.48668202 -37.98046875 61.53710938 C-39.72655155 61.54657109 -41.47264812 61.55380733 -43.21875 61.55859375 C-44.03863403 61.57812607 -44.85851807 61.59765839 -45.70324707 61.61778259 C-49.80677235 61.58529142 -51.39750274 61.55336032 -54.51757812 58.68774414 C-56.46295122 55.16063406 -56.57749755 52.97029565 -56 49 C-54 46.5625 -54 46.5625 -52 45 C-51.01 45.33 -50.02 45.66 -49 46 C-49.66 46.350625 -50.32 46.70125 -51 47.0625 C-53.35759384 48.9505684 -53.35759384 48.9505684 -53.5 52.5 C-53.35003758 55.95674046 -53.35003758 55.95674046 -51.3972168 57.69384766 C-48.19001779 59.44132853 -45.78946259 59.38833207 -42.14453125 59.3984375 C-41.48345871 59.40130768 -40.82238617 59.40417786 -40.14128113 59.40713501 C-38.74351138 59.40917223 -37.34571291 59.40366616 -35.94799805 59.39111328 C-33.83640553 59.37518038 -31.72676429 59.39090443 -29.61523438 59.41015625 C-19.77480333 59.42514648 -10.71734328 58.66497829 -3 52 C3.10227563 43.18560186 3.21166265 35.02538803 3.24023438 24.59790039 C3.24998629 22.44053243 3.28106975 20.28409987 3.3125 18.12695312 C3.31902681 16.75000562 3.32427855 15.37305135 3.328125 13.99609375 C3.3374707 12.75013428 3.34681641 11.5041748 3.35644531 10.22045898 C2.97511125 6.77513186 2.50793793 5.35941307 0 3 C-3.45749949 2.33323122 -3.45749949 2.33323122 -7 3 C-9.44098818 4.85420839 -9.44098818 4.85420839 -11 7 C-10.61502006 4.76711635 -10.10506663 3.16343698 -8.875 1.25 C-5.85509242 -0.76327172 -3.53155633 -0.42622232 0 0 Z " fill="#0FBA7B" transform="translate(178,122)"/>
<path d="M0 0 C0.87914062 0.37705078 1.75828125 0.75410156 2.6640625 1.14257812 C4.82031564 2.06836072 6.97376979 3.00011911 9.125 3.9375 C8.135 4.9275 7.145 5.9175 6.125 6.9375 C5.135 6.6075 4.145 6.2775 3.125 5.9375 C3.785 5.9375 4.445 5.9375 5.125 5.9375 C5.125 5.2775 5.125 4.6175 5.125 3.9375 C4.42761719 3.82921875 3.73023438 3.7209375 3.01171875 3.609375 C-0.25489389 2.84908085 -3.00956942 1.57080107 -6.0625 0.1875 C-11.7565668 -2.05152288 -14.99299717 -2.36000519 -20.65234375 -0.10546875 C-21.38582031 0.23871094 -22.11929688 0.58289063 -22.875 0.9375 C-24.18724325 1.50059871 -25.49971665 2.06316161 -26.8125 2.625 C-27.823125 3.058125 -28.83375 3.49125 -29.875 3.9375 C-30.865 3.9375 -31.855 3.9375 -32.875 3.9375 C-32.875 4.5975 -32.875 5.2575 -32.875 5.9375 C-32.215 6.2675 -31.555 6.5975 -30.875 6.9375 C-33.3125 6.5625 -33.3125 6.5625 -35.875 5.9375 C-36.205 5.2775 -36.535 4.6175 -36.875 3.9375 C-33.51089624 2.39169746 -30.13231458 0.88048791 -26.75 -0.625 C-25.79867187 -1.06263672 -24.84734375 -1.50027344 -23.8671875 -1.95117188 C-14.31663689 -6.1626994 -9.21926375 -4.01954346 0 0 Z " fill="#0DB77D" transform="translate(109.875,65.0625)"/>
<path d="M0 0 C0.495 0.99 0.495 0.99 1 2 C-2.19935289 5.70718668 -5.67951045 7.42927872 -10.14453125 9.19921875 C-11.17654915 9.61999443 -11.17654915 9.61999443 -12.22941589 10.04927063 C-13.68065385 10.63812682 -15.13394101 11.22195496 -16.58911133 11.80102539 C-18.80017746 12.68258695 -21.00278035 13.58311785 -23.20507812 14.48632812 C-24.62193101 15.05844417 -26.03923499 15.62944456 -27.45703125 16.19921875 C-28.10831497 16.46586838 -28.75959869 16.73251801 -29.43061829 17.00724792 C-33.66882404 18.67816181 -37.50779318 19.51800667 -42 20 C-39.12119318 17.12119318 -35.54750784 16.08607001 -31.81640625 14.62890625 C-30.15034168 13.96561772 -28.48432761 13.30220233 -26.81835938 12.63867188 C-24.18811005 11.59822282 -21.55689947 10.56029763 -18.92456055 9.52514648 C-16.38584504 8.52464286 -13.85101006 7.51477182 -11.31640625 6.50390625 C-10.13504845 6.04438316 -10.13504845 6.04438316 -8.92982483 5.57557678 C-8.19573898 5.28194748 -7.46165314 4.98831818 -6.70532227 4.68579102 C-6.06071548 4.43201187 -5.4161087 4.17823273 -4.75196838 3.91676331 C-2.77576805 2.88266476 -1.4936696 1.64230524 0 0 Z " fill="#0DBD73" transform="translate(146,125)"/>
<path d="M0 0 C8.11254004 1.12561791 15.41545707 3.90296522 22.92480469 7.05810547 C24.88694254 7.88000247 26.85679888 8.68089966 28.828125 9.48046875 C30.09165639 10.00397776 31.35469614 10.52867531 32.6171875 11.0546875 C33.74753418 11.52374512 34.87788086 11.99280273 36.04248047 12.47607422 C38.98391201 13.99171032 40.82501088 15.53315506 43 18 C42.67 18.66 42.34 19.32 42 20 C41.58586349 19.54231735 41.17172699 19.0846347 40.74504089 18.61308289 C38.89341744 16.90147709 37.40560032 16.13171534 35.0793457 15.19067383 C33.9084716 14.71051567 33.9084716 14.71051567 32.71394348 14.22065735 C31.87634995 13.88616074 31.03875641 13.55166412 30.17578125 13.20703125 C29.31438034 12.85613937 28.45297943 12.5052475 27.56547546 12.14372253 C24.81732096 11.0261668 22.06503076 9.91922723 19.3125 8.8125 C17.44698326 8.0560345 15.58174529 7.29888115 13.71679688 6.54101562 C9.14772599 4.68601738 4.574918 2.84052786 0 1 C0 0.67 0 0.34 0 0 Z " fill="#0DBE73" transform="translate(104,47)"/>
<path d="M0 0 C4.00827066 0.41752819 7.28917928 1.03775442 11 2.625 C16.50384999 4.78420269 20.86255105 3.50104247 26.1875 1.375 C26.82042969 1.09398438 27.45335938 0.81296875 28.10546875 0.5234375 C30.40639966 -0.11228362 31.76348212 0.25614705 34 1 C31.79716302 2.01390853 29.58901444 3.01104385 27.375 4 C26.75753906 4.28617187 26.14007813 4.57234375 25.50390625 4.8671875 C19.80716167 7.38574826 16.21609871 7.79722609 10.3515625 5.6875 C9.10439832 5.13612215 7.86219505 4.57339729 6.625 4 C5.98433594 3.71382813 5.34367187 3.42765625 4.68359375 3.1328125 C3.11792837 2.4317683 1.55830844 1.71724882 0 1 C0 0.67 0 0.34 0 0 Z " fill="#0CBA72" transform="translate(79,72)"/>
</svg>
