<?xml version="1.0" encoding="UTF-8"?>
<svg version="1.1" xmlns="http://www.w3.org/2000/svg" width="192" height="192">
<path d="M0 0 C0.79801025 0.30397705 1.59602051 0.6079541 2.41821289 0.92114258 C5.05517628 1.93371823 7.68391908 2.96587324 10.3125 4 C11.28767578 4.37817871 12.26285156 4.75635742 13.26757812 5.14599609 C16.26735518 6.31273723 19.25965599 7.49681064 22.25 8.6875 C23.66188599 9.23954102 23.66188599 9.23954102 25.10229492 9.80273438 C30.35184967 11.92996109 34.65793197 13.69086393 37.3125 19 C37.41364178 20.8271078 37.45088383 22.65790083 37.45776367 24.48779297 C37.46414352 25.63593475 37.47052338 26.78407654 37.47709656 27.9670105 C37.47820938 29.21281891 37.4793222 30.45862732 37.48046875 31.7421875 C37.48546135 33.65476852 37.48546135 33.65476852 37.49055481 35.60598755 C37.49562598 38.30783569 37.49839468 41.00958329 37.49780273 43.71142578 C37.4977012 47.17047397 37.51134378 50.62931649 37.52857494 54.08831596 C37.54238201 57.3895988 37.54178412 60.6908797 37.54296875 63.9921875 C37.55015427 65.23394745 37.55733978 66.4757074 37.56474304 67.75509644 C37.56166641 68.90954254 37.55858978 70.06398865 37.55541992 71.25341797 C37.55684494 72.26886688 37.55826996 73.2843158 37.55973816 74.33053589 C37.30521799 77.07862488 36.79550042 78.69152219 35.3125 81 C33.36474609 82.30639648 33.36474609 82.30639648 30.9609375 83.43359375 C30.06342773 83.85495605 29.16591797 84.27631836 28.24121094 84.71044922 C23.18199607 86.93808951 18.07778015 89.0296386 12.9375 91.0625 C11.89078125 91.48337891 10.8440625 91.90425781 9.765625 92.33789062 C6.62516587 93.58825861 3.47271857 94.80053329 0.3125 96 C-0.72551758 96.40718262 -1.76353516 96.81436523 -2.83300781 97.23388672 C-12.85816134 100.93413752 -19.63361698 99.80084691 -29.375 96 C-30.17373535 95.69529785 -30.9724707 95.3905957 -31.79541016 95.07666016 C-34.43107479 94.06348936 -37.05897836 93.03154601 -39.6875 92 C-41.1422876 91.44070801 -41.1422876 91.44070801 -42.62646484 90.87011719 C-45.61149687 89.72064987 -48.58786848 88.55109194 -51.5625 87.375 C-52.49537842 87.01535156 -53.42825684 86.65570313 -54.3894043 86.28515625 C-55.26894775 85.93066406 -56.14849121 85.57617188 -57.0546875 85.2109375 C-57.82925293 84.90462402 -58.60381836 84.59831055 -59.40185547 84.28271484 C-62.74616044 82.4058746 -64.43349665 81.20457502 -66.6875 78 C-67.44583873 73.52516694 -67.38763343 69.09200407 -67.3515625 64.5625 C-67.35634613 63.24967041 -67.36112976 61.93684082 -67.36605835 60.58422852 C-67.37341486 57.81008373 -67.36276586 55.03674598 -67.33935547 52.26269531 C-67.31086572 48.71470402 -67.32727664 45.16860373 -67.35721779 41.62068176 C-67.37967705 38.22613804 -67.36393158 34.83209739 -67.3515625 31.4375 C-67.36168365 30.16656494 -67.37180481 28.89562988 -67.38223267 27.58618164 C-67.26621867 18.86548753 -67.26621867 18.86548753 -64.58764648 14.85961914 C-61.37377599 12.79883528 -58.16980418 11.18013368 -54.62109375 9.80859375 C-53.94635513 9.5366066 -53.27161652 9.26461945 -52.57643127 8.98439026 C-50.43054692 8.12335511 -48.27796875 7.28063924 -46.125 6.4375 C-44.70724114 5.86893736 -43.28991908 5.29928424 -41.87304688 4.72851562 C-38.45411553 3.35855157 -35.02254848 2.02616777 -31.57879639 0.71990967 C-29.815297 0.0486451 -28.05800839 -0.63887349 -26.30126953 -1.32763672 C-16.41393317 -4.9799137 -9.6044907 -3.7468011 0 0 Z M-19.8203125 15.53125 C-20.62597656 15.84707031 -21.43164062 16.16289063 -22.26171875 16.48828125 C-23.10347656 16.82214844 -23.94523437 17.15601563 -24.8125 17.5 C-25.66199219 17.83386719 -26.51148438 18.16773438 -27.38671875 18.51171875 C-29.48818553 19.33813827 -31.58836391 20.1676821 -33.6875 21 C-33.6875 21.66 -33.6875 22.32 -33.6875 23 C-31.00622526 24.04053969 -28.31952404 25.0573467 -25.625 26.0625 C-24.87283203 26.35705078 -24.12066406 26.65160156 -23.34570312 26.95507812 C-15.50959613 29.83849412 -9.99716018 28.31501664 -2.25 25.4375 C-1.01378906 24.98246094 0.22242188 24.52742188 1.49609375 24.05859375 C2.42550781 23.70925781 3.35492188 23.35992187 4.3125 23 C4.3125 22.34 4.3125 21.68 4.3125 21 C1.35630781 19.8278551 -1.60278789 18.66322524 -4.5625 17.5 C-5.82513672 16.99919922 -5.82513672 16.99919922 -7.11328125 16.48828125 C-7.91894531 16.17246094 -8.72460938 15.85664062 -9.5546875 15.53125 C-10.29831543 15.23798828 -11.04194336 14.94472656 -11.80810547 14.64257812 C-14.98843861 13.5552 -16.78302754 14.33344748 -19.8203125 15.53125 Z M-49.6875 35 C-49.6875 46.22 -49.6875 57.44 -49.6875 69 C-45.418125 70.65 -41.14875 72.3 -36.75 74 C-35.40172119 74.52207031 -34.05344238 75.04414062 -32.66430664 75.58203125 C-31.61106201 75.98808594 -30.55781738 76.39414063 -29.47265625 76.8125 C-28.38863525 77.23144531 -27.30461426 77.65039062 -26.18774414 78.08203125 C-23.97495103 79.05744265 -23.97495103 79.05744265 -22.6875 79 C-22.6875 68.11 -22.6875 57.22 -22.6875 46 C-28.30872878 43.18938561 -33.77484532 40.61583077 -39.5625 38.25 C-40.32046875 37.93417969 -41.0784375 37.61835937 -41.859375 37.29296875 C-45.64700668 35.60607244 -45.64700668 35.60607244 -49.6875 35 Z M12.90234375 37.15234375 C11.83048828 37.59900391 10.75863281 38.04566406 9.65429688 38.50585938 C8.53087891 38.97830078 7.40746094 39.45074219 6.25 39.9375 C4.55907227 40.64036133 4.55907227 40.64036133 2.83398438 41.35742188 C-2.26757685 43.12505907 -2.26757685 43.12505907 -6.6875 46 C-6.77593793 48.44830426 -6.80278752 50.86820599 -6.78515625 53.31640625 C-6.7837413 54.04746078 -6.78232635 54.77851532 -6.78086853 55.53172302 C-6.77525408 57.87535632 -6.76269922 60.21889539 -6.75 62.5625 C-6.74498686 64.14778508 -6.74042363 65.73307166 -6.73632812 67.31835938 C-6.72527997 71.2122761 -6.70800572 75.10612205 -6.6875 79 C-3.12451525 77.70966779 0.43780081 76.41749914 4 75.125 C5.00740234 74.76019531 6.01480469 74.39539063 7.05273438 74.01953125 C8.02919922 73.66503906 9.00566406 73.31054688 10.01171875 72.9453125 C11.35496216 72.45828857 11.35496216 72.45828857 12.7253418 71.96142578 C15.27018151 71.01572617 17.79180002 70.00827999 20.3125 69 C20.3125 57.78 20.3125 46.56 20.3125 35 C17.50498918 35 15.49299074 36.07120096 12.90234375 37.15234375 Z " fill="#55BA7D" transform="translate(110.6875,48)"/>
<path d="M0 0 C4.40271927 0.44773416 5.70845473 1.13970967 8.6875 4.375 C9.20834722 7.42027761 9.41327669 9.89917231 9.38671875 12.9453125 C9.39387405 13.78158173 9.40102936 14.61785095 9.40840149 15.47946167 C9.41617891 17.2496433 9.41116528 19.01992081 9.39428711 20.79003906 C9.37520428 23.47129722 9.41428691 26.14726461 9.45898438 28.828125 C9.50562142 38.20041944 9.40538512 46.10335245 2.6875 53.375 C0.14628334 55.64654007 -2.38831423 57.6228563 -5.3125 59.375 C-5.83118652 59.72119385 -6.34987305 60.0673877 -6.88427734 60.42407227 C-10.54281681 61.85681017 -14.21730572 61.72073868 -18.09375 61.74609375 C-19.3694989 61.75963646 -19.3694989 61.75963646 -20.67102051 61.77345276 C-22.46635424 61.78793757 -24.26174055 61.7968376 -26.05712891 61.80053711 C-28.80330918 61.8124601 -31.54726072 61.86168202 -34.29296875 61.91210938 C-36.03905155 61.92157109 -37.78514812 61.92880733 -39.53125 61.93359375 C-40.35113403 61.95312607 -41.17101807 61.97265839 -42.01574707 61.99278259 C-46.11927235 61.96029142 -47.71000274 61.92836032 -50.83007812 59.06274414 C-52.77545122 55.53563406 -52.88999755 53.34529565 -52.3125 49.375 C-50.09386971 46.46782927 -48.79305071 45.53518357 -45.3125 44.375 C-42.92998382 44.26987037 -40.54490219 44.21977053 -38.16015625 44.19921875 C-36.72980291 44.17602562 -35.29946431 44.15190849 -33.86914062 44.12695312 C-31.61977179 44.09181825 -29.37094801 44.06247586 -27.12133789 44.04907227 C-24.94611213 44.0335843 -22.77246419 43.99338406 -20.59765625 43.94921875 C-19.29707275 43.93463623 -17.99648926 43.92005371 -16.65649414 43.9050293 C-13.30805795 43.60826641 -13.30805795 43.60826641 -10.88867188 41.79003906 C-8.72496084 38.47476186 -8.81426721 36.10321034 -8.80859375 32.16015625 C-8.79917252 31.46740097 -8.78975128 30.77464569 -8.78004456 30.06089783 C-8.75143774 27.85279624 -8.74831411 25.6457717 -8.75 23.4375 C-8.74638481 21.23295617 -8.73676579 19.02919522 -8.70924377 16.82481384 C-8.68480861 14.82222025 -8.6825231 12.81939274 -8.68139648 10.81665039 C-8.08764502 5.27719675 -5.84067861 0.6612089 0 0 Z " fill="#55BA7D" transform="translate(174.3125,121.625)"/>
<path d="M0 0 C3.19780987 2.35628096 4.3175828 4.16837191 5 8 C5.10265825 10.34223367 5.15481689 12.68686143 5.17578125 15.03125 C5.19896864 16.41277584 5.22308553 17.79428633 5.24804688 19.17578125 C5.28320376 21.34174062 5.31254405 23.50712927 5.32592773 25.67333984 C5.34141529 27.77249931 5.38160498 29.87002375 5.42578125 31.96875 C5.44036377 33.22107422 5.45494629 34.47339844 5.4699707 35.76367188 C5.77714414 39.01759555 5.77714414 39.01759555 7.58496094 41.40795898 C10.89942759 43.59292027 13.26148335 43.49821796 17.21484375 43.50390625 C17.90759903 43.51332748 18.60035431 43.52274872 19.31410217 43.53245544 C21.52220376 43.56106226 23.7292283 43.56418589 25.9375 43.5625 C28.14204383 43.56611519 30.34580478 43.57573421 32.55018616 43.60325623 C34.55277975 43.62769139 36.55560726 43.6299769 38.55834961 43.63110352 C43.20765145 44.12944324 45.74133447 45.74133447 49 49 C49.44040713 52.89026295 49.42507998 55.23235884 47.51220703 58.68676758 C44.03919204 61.88470898 40.92585205 61.73841881 36.4296875 61.69921875 C35.59341827 61.70637405 34.75714905 61.71352936 33.89553833 61.72090149 C32.1253567 61.72867891 30.35507919 61.72366528 28.58496094 61.70678711 C25.90370278 61.68770428 23.22773539 61.72678691 20.546875 61.77148438 C11.17458056 61.81812142 3.27164755 61.71788512 -4 55 C-6.27154007 52.45878334 -8.2478563 49.92418577 -10 47 C-10.34619385 46.48131348 -10.6923877 45.96262695 -11.04907227 45.42822266 C-12.48181017 41.76968319 -12.34573868 38.09519428 -12.37109375 34.21875 C-12.38012222 33.36825073 -12.3891507 32.51775146 -12.39845276 31.64147949 C-12.41293757 29.84614576 -12.4218376 28.05075945 -12.42553711 26.25537109 C-12.4374601 23.50919082 -12.48668202 20.76523928 -12.53710938 18.01953125 C-12.54657109 16.27344845 -12.55380733 14.52735188 -12.55859375 12.78125 C-12.57812607 11.96136597 -12.59765839 11.14148193 -12.61778259 10.29675293 C-12.58529142 6.19322765 -12.55336032 4.60249726 -9.68774414 1.48242188 C-6.16063406 -0.46295122 -3.97029565 -0.57749755 0 0 Z " fill="#55BA7D" transform="translate(21,122)"/>
<path d="M0 0 C0.83626923 -0.0071553 1.67253845 -0.01431061 2.53414917 -0.02168274 C4.3043308 -0.02946016 6.07460831 -0.02444653 7.84472656 -0.00756836 C10.52598472 0.01151447 13.20195211 -0.02756816 15.8828125 -0.07226562 C25.25510694 -0.11890267 33.15803995 -0.01866637 40.4296875 6.69921875 C42.70122757 9.24043541 44.6775438 11.77503298 46.4296875 14.69921875 C46.77588135 15.21790527 47.1220752 15.7365918 47.47875977 16.27099609 C48.91149767 19.92953556 48.77542618 23.60402447 48.80078125 27.48046875 C48.81432396 28.75621765 48.81432396 28.75621765 48.82814026 30.05773926 C48.84262507 31.85307299 48.8515251 33.6484593 48.85522461 35.44384766 C48.8671476 38.19002793 48.91636952 40.93397947 48.96679688 43.6796875 C48.97625859 45.4257703 48.98349483 47.17186687 48.98828125 48.91796875 C49.00781357 49.73785278 49.02734589 50.55773682 49.04747009 51.40246582 C49.01497892 55.5059911 48.98304782 57.09672149 46.11743164 60.21679688 C42.59032156 62.16216997 40.39998315 62.2767163 36.4296875 61.69921875 C33.52251677 59.48058846 32.58987107 58.17976946 31.4296875 54.69921875 C31.32455787 52.31670257 31.27445803 49.93162094 31.25390625 47.546875 C31.23071312 46.11652166 31.20659599 44.68618306 31.18164062 43.25585938 C31.14650575 41.00649054 31.11716336 38.75766676 31.10375977 36.50805664 C31.0882718 34.33283088 31.04807156 32.15918294 31.00390625 29.984375 C30.98932373 28.6837915 30.97474121 27.38320801 30.9597168 26.04321289 C30.66486113 22.69249289 30.66486113 22.69249289 28.83105469 20.27758789 C25.58282888 18.14259604 23.30633542 18.18569907 19.43359375 18.16015625 C18.76303452 18.14836334 18.09247528 18.13657043 17.40159607 18.12442017 C15.26488956 18.0892203 13.1291599 18.08000021 10.9921875 18.07421875 C8.85908047 18.05782692 6.72640589 18.0356687 4.5934906 18.00259399 C2.65565106 17.97408417 0.71756812 17.96385491 -1.22045898 17.95458984 C-5.20250564 17.65102445 -8.05949142 16.68906705 -11.3828125 14.51171875 C-13.33993803 11.52452715 -12.98905487 9.16879839 -12.5703125 5.69921875 C-9.47045997 0.12405027 -5.92002112 -0.05161403 0 0 Z " fill="#55BA7D" transform="translate(134.5703125,8.30078125)"/>
<path d="M0 0 C1.2757489 -0.01354271 1.2757489 -0.01354271 2.57727051 -0.02735901 C4.37260424 -0.04184382 6.16799055 -0.05074385 7.96337891 -0.05444336 C10.70955918 -0.06636635 13.45351072 -0.11558827 16.19921875 -0.16601562 C17.94530155 -0.17547734 19.69139812 -0.18271358 21.4375 -0.1875 C22.25738403 -0.20703232 23.07726807 -0.22656464 23.92199707 -0.24668884 C28.02552235 -0.21419767 29.61625274 -0.18226657 32.73632812 2.68334961 C34.68170122 6.21045969 34.79624755 8.4007981 34.21875 12.37109375 C31.85944354 15.57300966 30.05043645 16.6783411 26.21875 17.37109375 C23.86540599 17.50818518 21.50899502 17.59562603 19.15234375 17.65234375 C18.47704117 17.67075317 17.80173859 17.6891626 17.10597229 17.70812988 C14.22745964 17.78649807 11.34872559 17.85454548 8.4699707 17.92333984 C6.36398099 17.9751518 4.25818491 18.03235497 2.15234375 18.08984375 C0.2660022 18.1352832 0.2660022 18.1352832 -1.65844727 18.18164062 C-4.81266275 18.23812097 -4.81266275 18.23812097 -7.78125 19.37109375 C-8.9333964 22.82753295 -8.9576335 25.62441279 -9.02734375 29.26953125 C-9.0602848 30.64974586 -9.09349641 32.02995404 -9.12695312 33.41015625 C-9.17430591 35.57807975 -9.2187479 37.74597765 -9.25805664 39.9140625 C-9.29794213 42.01199152 -9.3494444 44.10939554 -9.40234375 46.20703125 C-9.4273999 47.4604834 -9.45245605 48.71393555 -9.47827148 50.00537109 C-9.83527666 53.97126419 -10.79587838 56.86710548 -12.96875 60.18359375 C-15.9559416 62.14071928 -18.31167036 61.78983612 -21.78125 61.37109375 C-24.46411133 59.87939453 -24.46411133 59.87939453 -26.78125 57.37109375 C-27.30209722 54.32581614 -27.50702669 51.84692144 -27.48046875 48.80078125 C-27.48762405 47.96451202 -27.49477936 47.1282428 -27.50215149 46.26663208 C-27.50992891 44.49645045 -27.50491528 42.72617294 -27.48803711 40.95605469 C-27.46895428 38.27479653 -27.50803691 35.59882914 -27.55273438 32.91796875 C-27.59937142 23.54567431 -27.49913512 15.6427413 -20.78125 8.37109375 C-18.24003334 6.09955368 -15.70543577 4.12323745 -12.78125 2.37109375 C-12.26256348 2.0248999 -11.74387695 1.67870605 -11.20947266 1.32202148 C-7.55093319 -0.11071642 -3.87644428 0.02535507 0 0 Z " fill="#55BA7E" transform="translate(35.78125,8.62890625)"/>
</svg>
